<svg width="764" height="974" viewBox="0 0 764 974" fill="none" xmlns="http://www.w3.org/2000/svg">
<g clip-path="url(#clip0_838_7)">
<path d="M213.723 697.723C231.993 699.895 249.969 704.533 267.013 711.453C270.617 712.916 275.272 714.287 276.72 718.309C277.429 720.287 277.549 722.432 277.752 724.502C277.992 726.932 278.241 729.37 278.48 731.8C279.457 741.527 280.434 751.254 281.412 760.99C282.509 771.932 283.606 782.883 284.702 793.825C284.878 795.573 287.643 795.591 287.468 793.825C285.44 773.607 283.412 753.389 281.384 733.171C281.144 730.742 280.895 728.303 280.656 725.873C280.425 723.591 280.296 721.263 279.789 719.018C279.338 717.039 278.471 715.152 277.005 713.708C275.54 712.263 273.751 711.352 271.926 710.542C263.326 706.76 254.384 703.668 245.332 701.156C234.971 698.275 224.397 696.223 213.714 694.962C211.953 694.751 211.962 697.511 213.714 697.723H213.723Z" fill="#EEE7D9"/>
<path d="M215.519 695.533C211.325 668.091 205.453 640.916 197.921 614.192C197.009 610.962 196.087 607.723 195.11 604.511C194.299 601.861 193.349 599.201 191.588 597.011C188.546 593.229 183.449 591.996 178.849 591.462C173.973 590.901 169.059 591.167 164.174 591.223C157.804 591.287 151.425 590.901 145.055 590.836C130.887 590.689 116.709 590.974 102.541 591.471C95.434 591.72 88.3268 592.032 81.2196 592.355C74.8314 592.649 68.4248 592.934 62.0643 593.689C55.7038 594.444 49.1958 595.723 43.0288 597.821C40.9363 598.539 38.8807 599.247 37.3597 600.931C36.0783 602.358 35.2671 604.143 34.8247 606.002C33.8752 609.968 34.2347 614.164 34.7233 618.158C35.3132 622.907 35.8571 627.655 36.4471 632.404C39.8762 659.938 47.3982 686.763 51.0578 714.251C51.5095 717.646 51.8967 721.051 52.2193 724.456C52.3852 726.214 55.1507 726.223 54.9848 724.456C52.4498 697.364 45.3241 671.027 40.9363 644.229C39.8762 637.741 39.0927 631.235 38.3644 624.692C37.9496 620.937 37.249 617.229 37.0647 613.447C36.8988 610.042 36.8803 605.818 39.1756 603.029C40.6137 601.272 42.9182 600.729 44.9923 600.057C47.9882 599.091 51.0394 598.309 54.1183 597.692C66.7655 595.152 79.8922 595.115 92.7423 594.582C106.652 594.002 120.572 593.588 134.5 593.542C141.377 593.514 148.263 593.579 155.14 593.753C160.357 593.891 165.538 593.891 170.755 593.855C175.411 593.827 180.287 593.901 184.712 595.539C186.841 596.321 188.786 597.609 190.04 599.532C191.635 601.962 192.344 604.87 193.156 607.631C200.779 633.554 206.835 659.928 211.297 686.579C211.841 689.8 212.348 693.021 212.846 696.251C213.113 697.999 215.777 697.254 215.51 695.514L215.519 695.533Z" fill="#EEE7D9"/>
<path d="M94.5121 835.033L102.578 835.411L106.615 835.604C107.74 835.659 108.948 835.825 110.045 835.466C112.11 834.785 112.506 832.567 112.506 830.671C112.506 827.929 112.451 825.187 112.46 822.435C112.487 811.457 112.847 800.478 113.548 789.527C113.944 783.288 114.46 777.058 115.078 770.837C115.253 769.07 112.487 769.079 112.312 770.837C111.298 781.079 110.57 791.349 110.146 801.628C109.934 806.736 109.796 811.834 109.731 816.941C109.694 819.536 109.685 822.122 109.694 824.717C109.694 825.941 109.694 827.156 109.713 828.38C109.722 829.521 109.879 830.745 109.685 831.877C109.473 833.128 108.57 832.935 107.51 832.88C106.09 832.816 104.67 832.751 103.251 832.678C100.338 832.54 97.425 832.401 94.5121 832.263C92.733 832.181 92.733 834.941 94.5121 835.024V835.033Z" fill="#EEE7D9"/>
<path d="M114.48 769.953C132.418 765.223 150.633 760.999 169.143 759.315C173.716 758.901 178.297 758.644 182.888 758.598C187.478 758.552 191.949 758.358 196.503 757.677C205.905 756.251 215.114 753.84 224.535 752.469C235.671 750.84 246.852 749.542 258.062 748.548C259.822 748.392 259.841 745.631 258.062 745.788C248.115 746.671 238.197 747.794 228.305 749.165C223.484 749.837 218.663 750.509 213.888 751.456C209.113 752.404 204.532 753.463 199.831 754.328C195.129 755.193 190.502 755.828 185.773 755.837C181.21 755.837 176.656 755.966 172.102 756.306C162.737 757.015 153.436 758.413 144.218 760.19C133.976 762.168 123.845 764.634 113.761 767.285C112.046 767.736 112.774 770.404 114.498 769.944L114.48 769.953Z" fill="#EEE7D9"/>
<path d="M256.577 746.818C256.301 761.947 257.02 777.095 258.762 792.131C259.25 796.365 259.822 800.598 260.467 804.812C260.734 806.561 263.399 805.816 263.131 804.076C260.246 785.138 258.992 765.969 259.343 746.818C259.379 745.042 256.614 745.042 256.577 746.818Z" fill="#EEE7D9"/>
<path d="M284.462 791.561C284.72 796.889 285.42 802.18 286.545 807.398L287.882 805.65C283.567 805.65 279.253 805.65 274.939 805.659C272.819 805.659 270.699 805.659 268.579 805.659C267.519 805.659 266.459 805.659 265.399 805.659C264.873 805.659 264.338 805.659 263.813 805.659H262.9C262.292 805.512 262.246 805.825 262.762 806.57C263.472 804.96 261.094 803.552 260.375 805.181C259.978 806.073 259.997 806.993 260.734 807.711C261.601 808.558 262.928 808.42 264.034 808.42C266.68 808.42 269.335 808.42 271.98 808.42C277.281 808.42 282.581 808.42 287.882 808.411C288.822 808.411 289.403 807.536 289.218 806.662C288.14 801.684 287.476 796.65 287.227 791.561C287.144 789.794 284.379 789.785 284.462 791.561Z" fill="#EEE7D9"/>
<path d="M94.2361 832.723C93.1207 812.183 92.4754 791.616 92.3002 771.039C92.2542 765.251 92.2449 759.462 92.2634 753.665C92.2634 751.889 89.5071 751.889 89.4979 753.665C89.4057 774.232 89.7837 794.809 90.6318 815.368C90.8714 821.156 91.148 826.935 91.4614 832.723C91.5536 834.49 94.319 834.499 94.2268 832.723H94.2361Z" fill="#EEE7D9"/>
<path d="M89.1749 764.653C73.1261 760.788 57.1234 756.72 41.176 752.46C39.4522 751.999 38.724 754.659 40.4385 755.119C56.3859 759.38 72.3886 763.447 88.4374 767.312C90.1704 767.726 90.9079 765.067 89.1749 764.653Z" fill="#EEE7D9"/>
<path d="M34.4935 605.523C29.6171 610.014 24.9988 614.772 20.6847 619.796C18.7028 622.106 16.9513 624.315 16.6563 627.453C16.3614 630.591 16.9974 634.171 17.2832 637.41C18.4815 651.168 19.8643 664.916 21.2746 678.665C24.0862 706.143 27.0268 733.613 28.9165 761.174C29.9766 776.607 30.7048 792.067 30.9076 807.527C30.9076 808.226 31.5344 808.972 32.2903 808.907C37.7106 808.466 43.1309 808.015 48.5511 807.573C49.3162 807.509 49.9062 806.993 49.9339 806.193C50.4501 789.582 50.4224 772.953 49.8601 756.343C49.7956 754.567 47.0301 754.567 47.0947 756.343C47.657 772.953 47.6846 789.582 47.1684 806.193L48.5511 804.812C43.1309 805.254 37.7106 805.705 32.2903 806.147L33.673 807.527C33.3135 780.223 31.3132 752.975 28.769 725.791C26.234 698.735 23.1828 671.726 20.7031 644.671C20.3528 640.888 20.021 637.115 19.6983 633.333C19.5416 631.465 19.2651 629.542 19.4034 627.664C19.5324 625.99 20.3159 624.591 21.3392 623.302C25.8468 617.606 31.1196 612.398 36.4477 607.483C37.7567 606.278 35.8024 604.327 34.4935 605.532V605.523Z" fill="#EEE7D9"/>
<path d="M213.261 695.579C195.295 696.039 177.458 698.376 159.685 700.843C141.912 703.309 123.716 705.876 105.74 708.444C95.5358 709.898 85.3406 711.37 75.1453 712.852C73.3939 713.11 74.1405 715.769 75.8828 715.511C93.7844 712.916 111.695 710.349 129.615 707.818C147.406 705.306 165.197 702.6 183.053 700.576C193.091 699.435 203.167 698.588 213.27 698.33C215.049 698.284 215.049 695.524 213.27 695.57L213.261 695.579Z" fill="#EEE7D9"/>
<path d="M221.706 686.128C219.484 676.005 217.226 665.901 215.05 655.769C212.93 645.849 211.492 635.984 212.276 625.824C212.663 620.763 213.428 615.701 214.506 610.732C214.967 608.634 215.594 606.683 217.318 605.266C219.042 603.849 221.162 602.919 223.089 601.898C227.329 599.652 231.689 597.609 236.298 596.266C240.907 594.922 246.051 594.416 251.038 594.361C261.325 594.241 271.64 594.766 281.928 595.014C292.215 595.263 302.844 595.511 313.307 595.769C318.377 595.889 323.446 595.971 328.507 596.137C332.692 596.275 337.126 596.542 340.952 598.428C349.036 602.404 350.981 612.517 351.94 620.606C353.12 630.619 352.613 640.732 353.203 650.772C353.783 660.775 355.221 670.742 357.508 680.496C358.079 682.944 358.706 685.374 359.379 687.794C359.858 689.505 362.522 688.778 362.043 687.058C359.213 676.926 357.286 666.545 356.355 656.073C355.433 645.738 355.885 635.349 355.12 625.005C354.484 616.327 353.313 605.818 346.861 599.284C340.408 592.75 329.908 593.395 321.317 593.192C299.737 592.677 278.158 592.106 256.578 591.646C251.37 591.536 246.152 591.554 240.999 592.382C236.123 593.165 231.468 594.83 226.988 596.882C224.748 597.913 222.563 599.036 220.397 600.214C218.47 601.254 216.405 602.257 214.829 603.803C213.253 605.349 212.423 607.474 211.925 609.637C211.363 612.094 210.939 614.588 210.552 617.073C209.75 622.244 209.243 627.462 209.252 632.699C209.261 637.935 209.86 642.959 210.727 648.03C212.515 658.447 215.069 668.754 217.336 679.079C217.908 681.674 218.479 684.269 219.042 686.864C219.42 688.604 222.093 687.867 221.706 686.128Z" fill="#EEE7D9"/>
<path d="M270.561 692.883C291.551 692.008 312.54 691.125 333.53 690.251C344.02 689.809 354.52 689.376 365.01 688.935C370.292 688.714 375.583 688.493 380.865 688.272C385.972 688.06 391.079 687.729 396.186 687.646C398.601 687.61 401.219 687.711 403.293 689.1C405.109 690.315 406.178 692.303 407.1 694.217C409.534 699.232 411.147 704.662 411.783 710.192C411.986 711.941 414.751 711.959 414.548 710.192C413.967 705.196 412.732 700.346 410.787 695.708C409.156 691.815 407.22 687.591 403.072 685.88C400.905 684.987 398.499 684.849 396.186 684.886C393.678 684.922 391.18 685.079 388.673 685.18C383.16 685.41 377.639 685.64 372.126 685.87C350.528 686.772 328.921 687.683 307.323 688.585C295.063 689.1 282.812 689.616 270.552 690.122C268.782 690.195 268.772 692.956 270.552 692.883H270.561Z" fill="#EEE7D9"/>
<path d="M365.629 740.662C350.124 740.515 334.619 741.417 319.234 743.404C315.454 743.892 311.684 744.435 307.923 745.052C305.987 745.364 304.061 745.696 302.134 746.045C300.558 746.331 298.714 746.45 297.405 747.463C296.188 748.401 295.838 749.846 295.7 751.3C295.534 753.104 295.488 754.935 295.414 756.748C295.257 760.659 295.202 764.57 295.248 768.481C295.34 777.205 295.921 785.929 296.981 794.589L297.995 793.254C295.11 794.349 292.123 794.938 289.026 794.975C287.247 795.003 287.247 797.763 289.026 797.736C292.344 797.69 295.617 797.092 298.723 795.914C299.239 795.72 299.811 795.214 299.737 794.579C298.843 787.19 298.281 779.754 298.078 772.309C297.977 768.628 297.967 764.938 298.041 761.248C298.078 759.444 298.133 757.641 298.216 755.837C298.29 754.144 298.133 752.174 298.585 750.527C298.963 749.137 300.539 749.128 301.756 748.898C303.683 748.549 305.609 748.208 307.536 747.886C311.278 747.269 315.021 746.708 318.782 746.211C326.092 745.254 333.439 744.545 340.804 744.076C349.064 743.552 357.351 743.331 365.629 743.414C367.408 743.432 367.408 740.671 365.629 740.653V740.662Z" fill="#EEE7D9"/>
<path d="M325.363 593.836C326.598 592.042 326.294 589.677 325.105 587.928C323.805 586.023 321.657 585.122 319.436 584.79C316.818 584.404 314.108 584.477 311.471 584.404C308.429 584.312 305.387 584.229 302.345 584.137C290.832 583.796 279.309 583.364 267.786 583.456C256.319 583.548 244.824 584.21 233.504 586.125C227.936 587.063 222.488 588.563 216.93 589.576C214.33 590.045 211.74 590.211 209.122 590.422C206.864 590.597 204.578 590.901 202.54 591.931C197.692 594.379 197.231 600.002 197.572 604.806C198.042 611.431 198.632 618.057 199.167 624.683C199.305 626.441 202.07 626.459 201.932 624.683C201.49 619.198 201.056 613.714 200.614 608.238C200.31 604.392 199.194 598.907 202.07 595.723C204.946 592.539 210.431 593.257 214.303 592.769C219.493 592.115 224.535 590.68 229.66 589.649C250.714 585.407 272.349 586.033 293.699 586.658C299.783 586.833 305.867 587.017 311.951 587.192C314.688 587.275 317.73 587.017 320.376 587.827C322.229 588.388 324.377 590.459 322.994 592.456C321.989 593.928 324.377 595.309 325.381 593.846L325.363 593.836Z" fill="#EEE7D9"/>
<path d="M61.1905 1.33447C60.6466 12.0462 61.4025 22.8039 63.4305 33.3315C63.6701 34.5554 63.919 35.7886 64.1956 37.0033C64.4537 38.1628 64.6196 39.4419 65.1911 40.5002C66.3803 42.718 69.072 42.3591 71.2106 42.3959C76.723 42.4972 82.2355 42.5524 87.7572 42.58C98.9388 42.626 110.12 42.5248 121.302 42.2763C126.814 42.1567 132.327 42.0002 137.839 41.7978C142.043 41.6413 146.504 41.0984 149.076 37.353C150.477 35.31 151.012 32.7886 151.427 30.3867C151.943 27.4419 152.284 24.4603 152.459 21.4787C152.8 15.4787 152.386 9.46026 151.326 3.54307C151.012 1.79459 148.348 2.54 148.661 4.27926C149.546 9.2302 149.924 14.2548 149.786 19.2793C149.666 23.899 149.325 28.8315 147.952 33.2671C147.352 35.1996 146.329 36.8929 144.495 37.8499C142.66 38.807 140.66 38.9174 138.724 39.0094C133.691 39.2487 128.64 39.3499 123.607 39.4696C113.273 39.718 102.93 39.8377 92.5875 39.8377C87.453 39.8377 82.3277 39.8008 77.1932 39.7364C74.5937 39.6996 71.9849 39.6628 69.3854 39.6076C68.3161 39.5892 67.7169 39.6444 67.4035 38.5217C67.0624 37.2886 66.8135 36.0186 66.5462 34.7579C64.2325 23.7793 63.4028 12.5339 63.9651 1.33447C64.0573 -0.441609 61.2919 -0.432407 61.1997 1.33447H61.1905Z" fill="#EEE7D9"/>
<path d="M106.239 63.4512C105.51 81.0555 106.045 98.6967 107.852 116.227C108.036 117.976 110.802 117.994 110.617 116.227C108.81 98.6967 108.276 81.0555 109.004 63.4512C109.078 61.6751 106.312 61.6751 106.239 63.4512Z" fill="#EEE7D9"/>
<path d="M105.271 112.188C97.1771 112.979 89.4431 115.491 82.0963 118.933C74.7494 122.375 67.5869 126.617 61.0144 131.393C54.5617 136.077 49.0492 141.672 45.2605 148.731C41.4719 155.789 39.112 163.795 37.5357 171.7C34.8072 185.393 34.7519 199.823 39.3148 213.139C43.8778 226.455 52.6904 237.958 64.1117 245.881C75.957 254.099 90.3742 258.102 104.57 259.639C111.723 260.412 118.941 260.513 126.122 260.062C133.801 259.584 141.526 258.341 148.578 255.148C162.773 248.706 170.867 234.056 176.25 220.151C182.003 205.262 184.547 188.909 182.574 173.016C180.749 158.292 175.163 143.356 164.322 132.847C152.652 121.528 136.115 117.783 120.656 114.774C116.296 113.927 111.908 113.182 107.511 112.528C105.768 112.27 105.022 114.93 106.773 115.188C115.217 116.439 123.624 118.004 131.92 120.037C139.359 121.859 146.762 124.197 153.417 128.053C165.981 135.341 173.817 148.123 177.587 161.872C181.689 176.835 181.21 192.783 177.338 207.737C175.412 215.191 172.665 222.424 169.162 229.28C165.889 235.694 161.907 241.878 156.505 246.71C145.342 256.703 129.238 257.835 114.931 257.532C100.625 257.228 87.2492 254.771 74.8324 248.854C62.48 242.973 52.1834 233.191 45.7675 221.108C39.3517 209.025 37.6187 196.179 38.6788 183.139C39.2964 175.593 40.8635 168.084 43.1772 160.878C45.5094 153.608 48.8833 146.587 54.1468 140.964C59.4104 135.341 66.0659 131.044 72.6845 127.105C79.3032 123.166 86.5671 119.476 94.1444 117.194C97.7763 116.099 101.5 115.316 105.271 114.948C107.022 114.774 107.041 112.013 105.271 112.188Z" fill="#EEE7D9"/>
<path d="M85.7196 120.203C84.088 139.924 82.4564 159.7 82.8159 179.513C83.1477 197.761 85.2034 216.093 90.3748 233.642C93.1955 243.222 96.9657 252.544 101.778 261.305C102.635 262.86 105.022 261.47 104.165 259.915C95.6291 244.39 90.6052 227.209 87.9688 209.752C85.1481 191.08 85.1389 172.096 86.0975 153.277C86.6599 142.243 87.5724 131.227 88.485 120.212C88.6325 118.445 85.8671 118.454 85.7196 120.212V120.203Z" fill="#EEE7D9"/>
<path d="M61.9928 132.746C60.9235 150.7 58.2595 168.543 57.8723 186.534C57.5405 201.958 59.0154 217.685 64.408 232.243C67.3394 240.166 71.4138 247.602 76.7695 254.154C77.8941 255.535 79.8392 253.565 78.7238 252.203C69.3489 240.737 64.3435 226.4 62.0942 211.915C59.55 195.544 60.6746 178.869 62.1864 162.451C63.099 152.55 64.1683 142.666 64.7583 132.746C64.8597 130.97 62.0942 130.979 61.9928 132.746Z" fill="#EEE7D9"/>
<path d="M127.366 255.728C132.141 237.654 135.119 219.12 136.262 200.467C137.396 181.878 136.677 163.206 134.142 144.755C132.934 135.967 131.653 126.341 125.301 119.595C124.085 118.298 122.13 120.249 123.347 121.546C128.777 127.307 130.04 135.58 131.137 143.108C132.446 152.062 133.294 161.08 133.718 170.126C134.566 188.393 133.653 206.771 130.934 224.853C129.413 235.004 127.32 245.071 124.693 255.001C124.241 256.722 126.905 257.458 127.357 255.737L127.366 255.728Z" fill="#EEE7D9"/>
<path d="M151.418 129.718C156.921 145.068 160.323 161.136 161.512 177.396C162.701 193.648 161.761 210.056 158.627 226.05C156.857 235.087 154.386 243.976 151.261 252.636C150.653 254.311 153.326 255.029 153.925 253.372C159.53 237.875 162.959 221.624 164.231 205.197C165.494 188.771 164.554 172.179 161.466 156.001C159.714 146.826 157.244 137.789 154.091 128.991C153.492 127.335 150.819 128.043 151.427 129.728L151.418 129.718Z" fill="#EEE7D9"/>
<path d="M46.3391 151.114C62.139 146.228 78.409 142.896 94.8726 141.231C111.336 139.565 127.91 139.519 144.346 141.093C153.62 141.985 162.838 143.412 171.955 145.344C173.688 145.712 174.434 143.053 172.692 142.685C156.339 139.215 139.654 137.375 122.933 137.209C106.22 137.034 89.4892 138.525 73.0717 141.635C63.7982 143.393 54.6262 145.675 45.6108 148.464C43.9147 148.988 44.6429 151.657 46.3483 151.123L46.3391 151.114Z" fill="#EEE7D9"/>
<path d="M40.025 173.439C58.4429 171.396 76.9437 170.062 95.463 169.436C113.982 168.82 132.529 168.912 151.039 169.731C155.731 169.933 160.488 170.007 165.143 170.66C169.199 171.231 173.31 172.381 176.472 175.096C177.818 176.255 179.781 174.304 178.426 173.145C172.49 168.037 164.415 167.642 156.957 167.255C147.481 166.758 137.986 166.455 128.492 166.335C109.585 166.096 90.6603 166.602 71.7908 167.863C61.1807 168.571 50.589 169.51 40.0158 170.678C38.2644 170.872 38.2459 173.632 40.0158 173.439H40.025Z" fill="#EEE7D9"/>
<path d="M97.6666 43.6474C98.57 47.1628 99.501 50.6689 100.478 54.1659C101.243 56.899 101.87 60.1291 104.23 61.988C105.419 62.9266 106.839 63.2947 108.314 63.5064C109.788 63.718 111.328 63.9021 112.351 62.5953C113.264 61.445 113.632 59.6781 114.038 58.2978C114.527 56.6597 114.923 54.9849 115.227 53.3008C115.919 49.491 116.149 45.6167 115.909 41.7517C115.799 39.9848 113.033 39.9756 113.144 41.7517C113.374 45.4327 113.199 49.1321 112.526 52.7579C112.176 54.626 111.715 56.4849 111.144 58.2978C110.913 59.034 110.738 59.9634 110.332 60.6168C110 61.1689 109.309 60.8837 108.701 60.8008C107.189 60.58 105.852 60.1291 105.004 58.7763C104.156 57.4235 103.787 55.7579 103.354 54.2211C102.303 50.4665 101.299 46.7026 100.331 42.9204C99.8882 41.1996 97.2241 41.9266 97.6666 43.6566V43.6474Z" fill="#EEE7D9"/>
<path d="M36.4021 199.271C54.5065 197.541 72.6663 196.39 90.8445 195.829C109.023 195.268 127.072 195.286 145.167 195.884C155.436 196.225 165.696 196.749 175.946 197.467C177.725 197.587 177.716 194.826 175.946 194.706C157.805 193.446 139.618 192.765 121.43 192.673C103.317 192.581 85.203 193.068 67.1262 194.136C56.8664 194.743 46.625 195.535 36.4021 196.51C34.6414 196.676 34.6322 199.436 36.4021 199.271Z" fill="#EEE7D9"/>
<path d="M42.495 218.66C51.5012 218.982 60.2584 221.145 69.0525 222.921C77.8466 224.697 86.8988 225.709 95.9418 226.243C104.985 226.777 114.175 227.136 123.292 227.393C132.409 227.651 140.926 227.504 149.573 225.811C158.284 224.108 166.673 220.758 173.642 215.2C175.034 214.087 173.061 212.145 171.687 213.249C158.644 223.657 141.148 225.038 125.099 224.679C116.139 224.485 107.16 224.081 98.2095 223.611C89.2587 223.142 80.3355 222.323 71.523 220.611C61.8992 218.734 52.34 216.268 42.5042 215.909C40.7251 215.844 40.7251 218.605 42.5042 218.67L42.495 218.66Z" fill="#EEE7D9"/>
<path d="M231.624 111.258C216.119 112.077 215.556 112.731 214.856 130.869C214.155 112.74 213.593 112.077 198.088 111.258C213.593 110.439 214.155 109.786 214.856 91.6477C215.556 109.777 216.119 110.439 231.624 111.258Z" fill="#EEE7D9"/>
<path d="M37.0379 149.78C29.2854 150.378 28.9997 150.856 28.6586 164.145C28.3083 150.856 28.0318 150.378 20.2793 149.78C28.0318 149.181 28.3175 148.703 28.6586 135.415C29.0089 148.703 29.2854 149.181 37.0379 149.78Z" fill="#EEE7D9"/>
<path d="M176.878 128.485H175.035C173.707 99.0924 173.126 98.5126 143.684 97.1875V95.347C173.126 94.0218 173.707 93.442 175.035 64.0493H176.878C178.206 93.442 178.786 94.0218 208.229 95.347V97.1875C178.786 98.5126 178.206 99.0924 176.878 128.485ZM157.492 96.2672C170.776 97.7672 174.454 101.439 175.956 114.7C177.459 101.439 181.137 97.7672 194.42 96.2672C181.137 94.7672 177.459 91.0954 175.956 77.8346C174.454 91.0954 170.776 94.7672 157.492 96.2672Z" fill="#EEE7D9"/>
<path d="M12.2325 220.308C11.707 208.731 11.5964 208.62 0 208.096V206.255C11.5964 205.74 11.707 205.62 12.2325 194.044H14.0761C14.6015 205.62 14.7122 205.731 26.3086 206.255V208.096C14.7122 208.62 14.6015 208.731 14.0761 220.308H12.2325ZM8.70193 207.176C11.1908 207.866 12.4537 209.127 13.1451 211.611C13.8364 209.127 15.0993 207.866 17.5882 207.176C15.0993 206.485 13.8364 205.225 13.1451 202.74C12.4537 205.225 11.1908 206.485 8.70193 207.176Z" fill="#EEE7D9"/>
<path d="M136.926 839.782C136.299 839.69 134.843 839.607 134.806 838.742C134.769 837.877 136.041 836.975 136.659 836.561C138.558 835.273 140.678 834.214 142.789 833.303C147.057 831.463 151.611 830.303 156.192 829.521C166.12 827.819 176.352 827.773 186.4 827.57C197.416 827.349 208.431 827.386 219.447 827.506C230.37 827.616 241.303 827.671 252.227 828.095C257.721 828.306 263.215 828.647 268.681 829.217C273.41 829.714 278.379 830.128 282.886 831.73C285.596 832.696 291.431 835.834 288.629 839.451C287.274 841.199 284.794 841.641 282.739 841.944C280.084 842.34 277.401 842.598 274.719 842.828C269.336 843.297 263.934 843.546 258.532 843.858C253.13 844.171 247.913 844.908 242.594 845.386C237.275 845.865 231.882 845.791 226.536 846.141C221.106 846.5 215.686 846.969 210.238 846.96C188.373 846.904 166.636 844.098 145.038 840.978C142.337 840.592 139.636 840.196 136.935 839.8C135.193 839.543 134.446 842.202 136.198 842.46C159.243 845.828 182.381 849.205 205.703 849.665C211.464 849.776 217.179 849.555 222.922 849.15C225.854 848.938 228.794 848.727 231.735 848.616C234.675 848.506 237.358 848.533 240.169 848.331C245.866 847.935 251.508 847.07 257.204 846.693C262.901 846.316 268.736 846.095 274.498 845.598C277.3 845.358 280.102 845.064 282.895 844.678C285.32 844.346 287.79 843.822 289.726 842.22C291.192 841.015 292.187 839.184 292.086 837.251C291.975 835.144 290.768 833.423 289.182 832.107C285.578 829.125 280.923 828.085 276.397 827.414C270.7 826.567 264.966 826.024 259.223 825.665C247.59 824.947 235.92 824.929 224.268 824.791C212.616 824.653 200.863 824.561 189.156 824.754C178.454 824.929 167.604 824.993 157.003 826.604C152.025 827.358 147.094 828.546 142.439 830.478C140.189 831.408 138.005 832.484 135.931 833.763C134.188 834.84 132.142 836.423 132.059 838.668C131.976 841.07 134.161 842.128 136.198 842.451C137.94 842.717 138.687 840.058 136.935 839.791L136.926 839.782Z" fill="#EEE7D9"/>
<path d="M146.044 844.116C144.606 860.671 142.928 877.208 141.103 893.727C139.268 910.319 137.296 926.902 135.258 943.475C134.115 952.779 132.963 962.092 131.802 971.396C131.58 973.153 134.346 973.135 134.567 971.396C136.623 954.905 138.669 938.414 140.633 921.905C142.596 905.322 144.477 888.739 146.164 872.129C147.113 862.797 147.998 853.466 148.809 844.125C148.966 842.359 146.2 842.368 146.044 844.125V844.116Z" fill="#EEE7D9"/>
<path d="M167.429 845.966C164.332 862.466 161.05 878.929 157.575 895.356C154.081 911.856 150.394 928.31 146.522 944.718C144.347 953.92 142.116 963.104 139.821 972.27L141.526 971.304C139.304 970.917 137.083 970.531 134.861 970.144C133.119 969.84 132.372 972.5 134.124 972.804C136.345 973.19 138.567 973.577 140.789 973.963C141.508 974.092 142.291 973.779 142.494 972.997C146.568 956.708 150.458 940.374 154.146 924.003C157.833 907.632 161.373 891.058 164.7 874.53C166.562 865.263 168.369 855.987 170.111 846.693C170.434 844.954 167.77 844.208 167.447 845.957L167.429 845.966Z" fill="#EEE7D9"/>
<path d="M279.734 843.49C281.154 859.926 282.813 876.334 284.611 892.724C286.408 909.122 288.353 925.503 290.354 941.874C291.478 951.123 292.631 960.371 293.774 969.61C293.986 971.35 296.76 971.368 296.539 969.61C294.511 953.239 292.483 936.868 290.547 920.488C288.611 904.107 286.768 887.717 285.109 871.309C284.168 862.043 283.293 852.766 282.491 843.481C282.343 841.723 279.568 841.705 279.725 843.481L279.734 843.49Z" fill="#EEE7D9"/>
<path d="M258.755 846.058C261.806 862.429 265.051 878.773 268.489 895.07C271.927 911.368 275.55 927.629 279.357 943.843C281.505 952.981 283.717 962.11 285.985 971.221C286.179 971.994 286.962 972.307 287.69 972.187C289.884 971.8 292.069 971.423 294.263 971.037C296.014 970.733 295.268 968.074 293.526 968.377C291.332 968.764 289.147 969.141 286.953 969.528L288.658 970.494C284.639 954.325 280.795 938.119 277.154 921.868C273.504 905.616 270.047 889.319 266.784 872.984C264.94 863.782 263.161 854.561 261.437 845.331C261.115 843.582 258.451 844.328 258.773 846.067L258.755 846.058Z" fill="#EEE7D9"/>
<path d="M458.327 762.739C477.712 762.739 497.098 762.739 516.484 762.739C535.87 762.739 555.255 762.739 574.641 762.739C585.518 762.739 596.405 762.739 607.283 762.739C609.062 762.739 609.062 759.978 607.283 759.978C587.897 759.978 568.511 759.978 549.125 759.978C529.739 759.978 510.354 759.978 490.968 759.978C480.091 759.978 469.204 759.978 458.327 759.978C456.547 759.978 456.547 762.739 458.327 762.739Z" fill="#EEE7D9"/>
<path d="M609.016 759.923C609.772 748.374 612.685 737.11 616.151 726.104C619.617 715.097 623.562 703.999 627.019 692.864C630.531 681.545 633.776 670.143 636.753 658.668C638.247 652.898 639.676 647.109 641.04 641.303C642.284 635.974 644.653 629.901 641.584 624.803C636.855 616.935 627.13 614.036 618.566 613.042C613.8 612.49 609.007 612.462 604.223 612.434C598.092 612.388 591.962 612.342 585.832 612.306C579.702 612.269 574.116 612.103 568.272 612.204C563.69 612.287 558.842 612.738 554.822 615.131C550.398 617.772 548.02 622.649 545.549 626.965C542.784 631.787 540.147 636.683 537.658 641.662C527.776 661.401 520.098 682.254 514.862 703.695C514.207 706.392 513.581 709.107 513 711.821C512.631 713.551 515.295 714.297 515.664 712.557C520.181 691.475 527.011 670.898 536.064 651.315C540.571 641.56 545.494 631.833 551.255 622.741C552.536 620.726 554.011 618.858 556.067 617.597C557.994 616.419 560.178 615.784 562.391 615.407C567.35 614.569 572.549 614.956 577.554 614.993C588.856 615.076 600.185 614.901 611.477 615.296C619.875 615.591 629.388 616.585 635.942 622.419C637.675 623.965 639.39 625.852 640.081 628.116C640.929 630.895 639.906 633.922 639.279 636.646C637.998 642.241 636.661 647.818 635.251 653.386C632.421 664.585 629.333 675.729 625.987 686.781C622.677 697.723 618.999 708.527 615.413 719.376C611.828 730.226 608.657 740.745 607.099 751.824C606.721 754.512 606.426 757.208 606.251 759.923C606.131 761.699 608.896 761.69 609.016 759.923Z" fill="#EEE7D9"/>
<path d="M606.997 759.619C594.386 754.116 583.869 745.015 572.355 737.68C560.961 730.429 548.803 724.392 536.155 719.634C528.993 716.947 521.674 714.683 514.235 712.852C512.511 712.429 511.773 715.088 513.497 715.511C526.652 718.751 539.465 723.343 551.651 729.269C557.671 732.195 563.543 735.435 569.221 738.969C574.899 742.502 580.366 746.45 585.869 750.306C592.137 754.696 598.562 758.929 605.605 762.002C607.218 762.711 608.628 760.328 606.997 759.619Z" fill="#EEE7D9"/>
<path d="M513.543 712.07C494.581 711.886 475.619 712.015 456.667 712.465C437.788 712.916 418.918 713.68 400.058 714.757C395.384 715.024 390.711 715.3 386.047 715.622C382.083 715.898 378.036 716.257 374.247 717.508C367.841 719.634 362.006 725.1 362.291 732.334C362.42 735.646 364.089 738.536 366.771 740.459C369.454 742.383 372.883 743.119 376.1 743.625C380.073 744.251 384.019 744.812 387.918 745.806C392.149 746.883 396.297 748.263 400.399 749.754C416.826 755.745 433.28 764.009 451.228 763.456C453.431 763.392 455.625 763.162 457.801 762.821C459.552 762.545 458.805 759.886 457.063 760.162C439.844 762.849 423.159 755.597 407.488 749.496C399.745 746.487 391.9 743.607 383.724 742.033C380.313 741.38 376.819 741.122 373.445 740.303C370.486 739.585 367.435 738.306 365.905 735.499C364.485 732.886 364.965 729.656 366.292 727.107C367.85 724.097 370.431 721.99 373.547 720.702C377.123 719.211 381.05 718.751 384.885 718.465C389.254 718.134 393.624 717.895 398.002 717.637C416.088 716.579 434.202 715.806 452.316 715.337C470.429 714.858 488.552 714.674 506.675 714.784C508.97 714.794 511.266 714.812 513.552 714.84C515.331 714.858 515.331 712.097 513.552 712.079L513.543 712.07Z" fill="#EEE7D9"/>
<path d="M453.136 788.919C452.915 805.392 453.155 821.874 453.864 838.337C454.067 843.058 454.307 847.788 454.583 852.509C454.685 854.276 457.45 854.285 457.349 852.509C456.381 836.055 455.874 819.582 455.828 803.11C455.819 798.38 455.846 793.65 455.902 788.919C455.929 787.143 453.164 787.143 453.136 788.919Z" fill="#EEE7D9"/>
<path d="M455.542 854.368C456.658 854.625 457.755 854.938 458.843 855.288C459.377 855.463 459.903 855.647 460.428 855.84C460.705 855.941 460.972 856.042 461.239 856.153C461.359 856.199 461.47 856.245 461.59 856.291C461.636 856.309 462.106 856.512 461.838 856.392C462.502 856.677 463.35 856.613 463.728 855.895C464.042 855.306 463.94 854.312 463.23 854.009C460.972 853.052 458.667 852.269 456.28 851.708C455.579 851.542 454.75 851.929 454.575 852.674C454.418 853.383 454.787 854.193 455.542 854.377V854.368Z" fill="#EEE7D9"/>
<path d="M463.349 856.825C469.738 855.527 476.135 854.221 482.523 852.923C484.265 852.564 483.528 849.905 481.786 850.263C475.398 851.561 469 852.868 462.612 854.165C460.87 854.524 461.607 857.184 463.349 856.825Z" fill="#EEE7D9"/>
<path d="M483.99 851.579C483.842 835.346 483.695 819.104 483.557 802.87C483.511 798.223 483.474 793.567 483.428 788.919C483.409 787.143 480.644 787.143 480.662 788.919C480.81 805.153 480.957 821.395 481.095 837.628C481.142 842.275 481.178 846.932 481.224 851.579C481.243 853.355 484.008 853.355 483.99 851.579Z" fill="#EEE7D9"/>
<path d="M454.823 788.22C437.327 781.944 419.997 775.226 402.842 768.067C402.15 767.781 401.33 768.38 401.136 769.033C400.906 769.824 401.413 770.441 402.104 770.735C419.259 777.895 436.589 784.613 454.085 790.889C455.763 791.487 456.482 788.827 454.823 788.229V788.22Z" fill="#EEE7D9"/>
<path d="M410.64 822.104C409.847 805.751 409.515 789.38 409.644 773.009C409.663 771.232 406.897 771.232 406.879 773.009C406.75 789.38 407.081 805.751 407.874 822.104C407.957 823.871 410.723 823.88 410.64 822.104Z" fill="#EEE7D9"/>
<path d="M407.202 822.278L382.377 821.883C380.598 821.855 380.598 824.616 382.377 824.644L407.202 825.039C408.981 825.067 408.981 822.306 407.202 822.278Z" fill="#EEE7D9"/>
<path d="M380.994 745.429V823.052C380.994 824.828 383.76 824.828 383.76 823.052V745.429C383.76 743.653 380.994 743.653 380.994 745.429Z" fill="#EEE7D9"/>
<path d="M483.087 790.355C510.419 789.334 537.787 789.453 565.101 790.742C572.733 791.101 580.357 791.552 587.98 792.095C589.759 792.223 589.75 789.463 587.98 789.334C560.704 787.401 533.344 786.619 505.994 787.006C498.352 787.116 490.719 787.309 483.087 787.595C481.317 787.659 481.308 790.42 483.087 790.355Z" fill="#EEE7D9"/>
<path d="M579.102 613.548C579.471 608.036 584.762 604.327 589.768 603.287C596.645 601.851 604.001 603.913 610.758 605.118C617.948 606.397 625.147 607.686 632.337 608.965C635.739 609.572 639.168 610.097 642.542 610.824C645.445 611.45 648.432 612.361 650.635 614.45C654.535 618.14 655.198 624.02 654.94 629.1C654.608 635.689 652.894 642.168 650.893 648.425C648.893 654.683 646.524 660.839 644.542 667.115C642.56 673.392 640.938 680.293 639.739 687.011C637.315 700.548 636.19 714.26 634.301 727.861C633.36 734.643 632.236 741.416 630.66 748.079C629.876 751.419 628.936 754.723 627.949 758.008C626.963 761.294 626.041 764.643 626.106 768.085C626.17 771.527 627.221 774.987 628.226 778.318C629.231 781.65 630.272 784.907 631.379 788.174C633.545 794.579 635.905 800.91 638.467 807.159C641.076 813.518 643.878 819.803 646.883 825.987C647.639 827.542 648.404 829.088 649.179 830.625C649.713 831.674 651.105 833.588 650.22 834.766C649.612 835.585 648.22 835.769 647.28 835.861C645.685 836.018 644.054 835.944 642.45 835.963C638.799 836.009 635.149 836.055 631.508 836.101C629.682 836.128 627.857 836.147 626.032 836.174C624.797 836.193 622.391 836.745 621.755 835.383C621.119 834.021 620.916 832.346 620.529 830.901C620.022 829.005 619.496 827.11 618.971 825.214C617.994 821.717 616.998 818.239 615.957 814.76C614.915 811.282 613.855 807.812 612.767 804.361C611.873 801.536 611.053 798.647 609.762 795.959C608.665 793.668 607.098 791.478 604.867 790.162C602.314 788.662 599.346 788.625 596.479 788.975C593.612 789.324 590.736 790.015 587.897 789.407C586.164 789.03 585.417 791.689 587.159 792.067C590.293 792.748 593.354 792.122 596.479 791.735C599.373 791.377 602.415 791.349 604.683 793.456C606.655 795.288 607.716 797.901 608.573 800.404C609.744 803.818 610.785 807.278 611.836 810.72C614.048 817.944 616.132 825.214 618.077 832.512C618.473 833.993 618.704 835.714 619.487 837.058C620.271 838.401 621.552 838.88 623.008 838.963C626.714 839.174 630.512 838.88 634.218 838.834C637.923 838.788 641.823 838.742 645.621 838.687C648.017 838.65 651.041 838.42 652.525 836.239C654.47 833.377 651.843 829.88 650.571 827.312C648.967 824.091 647.427 820.852 645.934 817.576C640.016 804.601 634.983 791.229 630.862 777.591C629.802 774.085 628.668 770.515 628.862 766.806C629.056 763.097 630.318 759.72 631.332 756.269C633.342 749.422 634.78 742.419 635.923 735.379C638.191 721.382 639.288 707.238 641.454 693.232C642.551 686.183 643.915 679.171 645.842 672.306C647.695 665.68 650.137 659.247 652.35 652.741C654.562 646.235 656.535 639.49 657.365 632.588C658.037 627.002 657.982 620.855 655.134 615.821C651.907 610.115 645.805 608.578 639.785 607.511C632.439 606.204 625.092 604.888 617.754 603.582C614.002 602.91 610.26 602.247 606.508 601.575C602.959 600.94 599.382 600.269 595.769 600.121C589.657 599.873 583.214 601.465 579.185 606.379C577.489 608.459 576.475 610.87 576.291 613.548C576.171 615.324 578.937 615.315 579.056 613.548H579.102Z" fill="#EEE7D9"/>
<path d="M469.756 640.612C474.07 616.53 488.847 596.118 505.117 578.496C507.44 575.974 509.79 573.462 512.233 571.042C514.676 568.621 517.202 566.505 520.594 565.971C522.346 565.695 521.599 563.035 519.857 563.312C513.754 564.269 509.376 569.928 505.393 574.152C501.033 578.781 496.802 583.529 492.811 588.48C485.012 598.161 478.025 608.606 473.121 620.063C470.392 626.431 468.318 633.057 467.092 639.876C466.779 641.616 469.443 642.361 469.756 640.612Z" fill="#EEE7D9"/>
<path d="M550.784 554.496C542.838 550.446 533.832 548.597 524.927 549.213C520.631 549.508 516.207 550.272 512.178 551.827C510.353 552.526 508.611 553.566 507.855 555.462C507.164 557.192 507.542 559.161 508.473 560.735C510.74 564.526 515.442 565.005 519.35 565.916C523.839 566.965 528.264 568.382 532.504 570.177C536.745 571.971 540.819 574.134 544.691 576.609C548.562 579.085 552.434 582.158 556.26 584.993C564.501 591.103 574.115 596.652 584.781 594.968C586.062 594.766 585.988 593.045 585.112 592.447C573.645 584.634 563.487 574.851 555.301 563.652C552.95 560.44 550.766 557.109 548.738 553.695C547.834 552.167 545.438 553.557 546.35 555.084C553.642 567.379 563.035 578.431 574.051 587.56C577.157 590.137 580.383 592.557 583.72 594.83L584.052 592.309C575.443 593.671 567.22 589.364 560.399 584.588C556.822 582.085 553.42 579.333 549.871 576.793C546.322 574.253 542.829 572.109 539.059 570.186C535.288 568.262 531.592 566.726 527.702 565.41C523.812 564.094 519.691 563.311 515.663 562.262C513.884 561.793 511.994 561.094 510.952 559.474C510.049 558.075 509.957 556.345 511.395 555.287C512.833 554.229 514.999 553.759 516.769 553.299C518.677 552.802 520.631 552.425 522.586 552.195C531.749 551.1 541.17 552.692 549.401 556.879C550.987 557.689 552.388 555.305 550.793 554.496H550.784Z" fill="#EEE7D9"/>
<path d="M499.052 507.388C491.06 523.078 485.345 539.597 481.104 556.658C478.92 565.465 476.91 574.308 474.836 583.143C472.762 591.977 470.596 600.885 468.604 609.793C466.401 619.64 464.65 629.716 465.369 639.839C465.498 641.597 468.263 641.615 468.134 639.839C467.507 630.931 468.807 622.078 470.651 613.382C472.495 604.686 474.67 595.934 476.716 587.229C480.763 569.965 484.294 552.443 490.046 535.649C493.198 526.437 497.015 517.474 501.439 508.796C502.241 507.213 499.863 505.814 499.052 507.406V507.388Z" fill="#EEE7D9"/>
<path d="M462.788 430.584C470.282 450.48 469.499 472.4 469.84 493.317C470.208 515.956 470.448 538.594 470.55 561.232C470.605 573.931 470.614 586.621 470.586 599.321C470.586 601.097 473.352 601.097 473.352 599.321C473.407 576.526 473.324 553.741 473.094 530.946C472.983 519.627 472.836 508.308 472.661 496.989C472.485 486.14 472.467 475.262 471.849 464.431C471.186 452.698 469.609 440.9 465.452 429.857C464.834 428.21 462.161 428.928 462.788 430.593V430.584Z" fill="#EEE7D9"/>
<path d="M519.93 344.044C513.357 357.286 507.319 370.851 502.756 384.921C498.055 399.406 495.354 414.351 493.326 429.415C491.224 445.023 489.417 460.667 487.5 476.293C485.564 492.038 483.628 507.793 481.683 523.538C479.748 539.284 477.812 555.038 475.867 570.784C475.627 572.762 475.378 574.741 475.139 576.719C474.927 578.477 477.692 578.459 477.904 576.719C479.831 561.048 481.757 545.376 483.693 529.704C485.61 514.106 487.528 498.508 489.454 482.919C491.372 467.339 493.243 451.75 495.216 436.179C497.124 421.096 499.401 406.023 503.659 391.4C507.918 376.777 513.486 363.691 519.865 350.458C520.676 348.783 521.497 347.108 522.317 345.443C523.137 343.777 520.722 342.452 519.93 344.053V344.044Z" fill="#EEE7D9"/>
<path d="M467.811 640.842C467.377 622.502 461.091 604.318 449.854 589.778C446.867 585.913 443.327 582.315 438.534 580.861C436.828 580.345 436.1 583.005 437.796 583.52C441.742 584.716 444.71 587.726 447.227 590.864C449.909 594.232 452.278 597.885 454.371 601.649C458.629 609.296 461.671 617.588 463.414 626.164C464.4 631.005 464.935 635.91 465.045 640.842C465.091 642.618 467.857 642.618 467.811 640.842Z" fill="#EEE7D9"/>
<path d="M498 506.919C493.17 509.238 486.92 508.483 482.892 504.894C478.863 501.305 477.37 495.848 478.725 490.823L477.02 491.79C480.984 492.784 484.274 495.388 487.565 497.679C491.262 500.256 494.949 502.833 498.646 505.409C502.038 507.774 505.476 510.121 508.463 512.992C511.302 515.716 513.551 518.909 515.506 522.305C519.267 528.83 522.004 535.943 526.466 542.063C528.558 544.925 530.946 547.538 533.804 549.646C536.661 551.753 540.468 553.695 544.137 553.612C550.848 553.465 553.964 546.498 555.614 540.986C556.886 536.735 558.047 532.456 559.255 528.186C560.462 523.916 561.873 519.636 562.85 515.302C563.698 511.547 563.818 507.508 561.504 504.222C559.531 501.416 556.545 499.593 553.503 498.13C545.972 494.523 537.979 491.716 529.904 489.572C521.829 487.428 513.45 485.992 505.071 485.293C497.484 484.667 489.464 484.621 482.265 487.4C480.495 488.081 478.808 488.909 477.204 489.922C475.702 490.86 477.084 493.253 478.596 492.305C484.864 488.376 492.34 487.547 499.604 487.741C507.523 487.952 515.45 489.093 523.184 490.787C530.918 492.48 538.809 494.919 546.285 497.965C552.194 500.376 560.886 503.339 560.674 511.069C560.564 515.118 558.932 519.204 557.835 523.06C556.646 527.229 555.466 531.397 554.277 535.566C553.355 538.796 552.581 542.146 551.078 545.164C549.898 547.538 548.184 549.959 545.474 550.658C542.109 551.523 538.293 549.434 535.629 547.557C532.965 545.679 530.586 543.075 528.641 540.37C524.447 534.526 521.783 527.817 518.271 521.578C516.483 518.394 514.445 515.33 511.975 512.633C509.357 509.781 506.26 507.425 503.116 505.189C499.706 502.759 496.258 500.394 492.829 498.001C489.4 495.609 486.293 493.179 482.781 491.192C481.196 490.299 479.509 489.563 477.739 489.121C477.02 488.937 476.236 489.351 476.033 490.087C474.411 496.106 476.365 502.989 481.168 507.057C486.192 511.327 493.456 512.127 499.374 509.293C500.978 508.52 499.577 506.146 497.982 506.909L498 506.919Z" fill="#EEE7D9"/>
<path d="M527.029 492.618C535.648 503.192 539.676 517.097 538.266 530.624C538.082 532.391 540.847 532.373 541.031 530.624C542.525 516.333 538.054 501.784 528.983 490.667C527.859 489.287 525.914 491.256 527.029 492.618Z" fill="#EEE7D9"/>
<path d="M497.844 430.805C507.735 432.342 518.133 429.949 526.163 423.903C533.122 418.658 537.897 411.231 540.7 403.05C543.502 394.869 544.442 385.74 543.99 376.98C543.437 366.093 540.829 355.418 538.33 344.844C537.021 339.295 535.703 333.746 534.671 328.133C534.155 325.354 533.712 322.556 533.38 319.74C533.113 317.43 532.984 315.047 532.293 312.801C531.638 310.703 530.477 308.762 528.568 307.584C526.66 306.406 524.411 306.222 522.282 306.599C517.147 307.501 513.792 311.992 510.768 315.82C504.002 324.397 497.78 333.397 492.194 342.774C486.607 352.151 481.381 361.878 477.509 372.065C473.84 381.719 471.637 392.283 473.536 402.572C475.094 411.01 479.371 419.182 486.285 424.437C487.972 425.725 489.797 426.793 491.742 427.639C493.355 428.348 494.766 425.964 493.134 425.256C485.575 421.952 480.311 415.151 477.684 407.477C474.615 398.513 475.278 388.952 477.813 379.933C480.606 369.986 485.363 360.627 490.332 351.599C495.3 342.562 500.84 333.838 506.897 325.482C509.865 321.397 512.852 317.191 516.281 313.482C518.936 310.602 524.125 307.087 527.831 310.455C529.334 311.817 529.841 313.897 530.163 315.82C530.55 318.157 530.716 320.541 531.048 322.897C531.804 328.252 532.901 333.553 534.099 338.826C538.33 357.415 543.963 376.427 539.898 395.569C538.22 403.473 534.966 411.204 529.453 417.222C523.277 423.967 514.585 428.062 505.431 428.486C503.154 428.587 500.859 428.486 498.6 428.136C496.858 427.869 496.111 430.529 497.863 430.796L497.844 430.805Z" fill="#EEE7D9"/>
<path d="M473.462 479.007C480.274 476.247 484.533 470.026 487.381 463.51C490.515 456.351 492.617 448.446 492.212 440.578C492.018 436.768 491.198 433.041 489.658 429.544C488.036 425.872 485.501 422.67 482.68 419.845C479.656 416.817 476.32 414.112 473.066 411.332C469.526 408.314 465.977 405.286 462.437 402.268C458.611 399.001 454.85 395.633 450.896 392.513C447.393 389.743 443.632 387.296 439.281 386.099C438.433 385.869 437.511 386.532 437.53 387.434C437.815 401.32 439.613 415.105 441.659 428.826C443.494 441.121 444.6 454.124 452.509 464.283C456.298 469.152 461.211 473.109 466.806 475.731C468.41 476.486 469.812 474.103 468.198 473.348C458.095 468.609 450.988 459.719 448.038 449.044C446.333 442.869 445.577 436.437 444.628 430.115C443.623 423.434 442.655 416.743 441.899 410.026C441.051 402.526 440.452 394.989 440.295 387.434L438.544 388.768C446.066 390.829 451.928 396.921 457.69 401.845C464.262 407.449 470.936 412.961 477.407 418.694C480.256 421.216 483.03 423.894 485.141 427.069C487.252 430.243 488.478 433.584 489.087 437.21C490.313 444.461 488.782 452.017 486.294 458.836C483.805 465.655 479.887 473.431 472.734 476.33C471.102 476.992 471.821 479.661 473.471 478.989L473.462 479.007Z" fill="#EEE7D9"/>
<path d="M455.302 593.523C456.177 588.131 453.274 583.364 450.066 579.278C446.987 575.348 443.125 572.008 438.101 571.005C435.381 570.462 432.57 570.397 429.814 570.305C427.057 570.213 424.163 570.158 421.351 570.278C418.853 570.379 416.327 570.71 414.078 571.861C412.032 572.91 410.437 574.667 409.294 576.637C407.976 578.91 407.201 581.468 406.556 584.008C405.745 587.201 405.192 590.45 404.842 593.726C404.749 594.6 405.8 595.318 406.593 595.06C412.087 593.22 415.977 588.811 421.019 586.17C423.822 584.707 426.808 584.321 429.906 585.011C433.39 585.793 436.58 587.431 439.972 588.48C443.696 589.631 447.586 590.008 451.227 588.407C452.85 587.689 451.449 585.315 449.835 586.023C446.674 587.413 443.069 586.621 439.944 585.572C436.635 584.468 433.482 582.885 430.035 582.223C426.901 581.624 423.859 581.9 420.927 583.17C418.411 584.256 416.217 585.904 414.032 587.523C411.497 589.41 408.907 591.379 405.865 592.4L407.616 593.735C408.114 589.106 408.944 584.201 410.769 579.885C411.506 578.137 412.53 576.416 414.014 575.192C415.701 573.811 417.895 573.296 420.033 573.121C424.9 572.726 429.98 572.91 434.837 573.333C437.197 573.535 439.52 574.023 441.604 575.192C443.466 576.241 445.051 577.677 446.48 579.259C449.642 582.756 453.467 587.781 452.656 592.796C452.38 594.535 455.044 595.281 455.32 593.532L455.302 593.523Z" fill="#EEE7D9"/>
<path d="M702.939 439.041C698.274 463.244 694.55 487.621 691.232 512.045C687.913 536.459 684.945 560.91 681.894 585.361C680.161 599.229 678.437 613.097 676.704 626.956C676.483 628.714 679.248 628.695 679.469 626.956C682.53 602.422 685.581 577.888 688.651 553.364C691.693 529.023 694.818 504.692 698.579 480.452C700.69 466.851 703.003 453.287 705.603 439.777C705.935 438.038 703.271 437.302 702.939 439.041Z" fill="#EEE7D9"/>
<path d="M695.277 490.069C686.806 490.069 678.021 490.041 669.983 487.005C661.944 483.968 655.851 477.112 652.192 469.271C648.532 461.431 647.481 452.017 651.814 444.222C653.768 440.698 656.672 437.882 660.34 436.179C664.553 434.228 669.356 433.75 673.919 433.363C679.072 432.931 684.335 432.517 689.507 432.682C693.692 432.811 698.079 433.593 701.075 436.768C702.301 438.066 704.246 436.106 703.03 434.817C696.844 428.256 686.068 429.829 677.993 430.317C668.443 430.888 657.815 431.67 651.454 439.787C645.637 447.222 645.038 457.161 647.905 465.903C650.772 474.646 656.616 483.158 664.857 487.667C674.085 492.719 685.017 492.83 695.268 492.82C697.047 492.82 697.047 490.06 695.268 490.06L695.277 490.069Z" fill="#EEE7D9"/>
<path d="M696.541 494.495C702.938 496.732 709.778 498.112 716.563 498.222C722.757 498.324 728.86 496.888 733.441 492.508C735.635 490.4 737.396 487.87 739.037 485.33C740.779 482.615 742.374 479.799 743.802 476.909C746.66 471.149 748.928 465.075 750.513 458.845C752.301 451.823 753.242 444.59 753.325 437.348C753.343 435.572 750.578 435.572 750.559 437.348C750.421 449.596 747.729 461.817 742.632 472.971C740.189 478.317 737.285 483.774 733.533 488.33C731.754 490.492 729.689 492.37 727.136 493.584C724.582 494.799 721.458 495.342 718.517 495.443C711.336 495.692 704.026 494.182 697.278 491.827C695.591 491.238 694.872 493.906 696.541 494.486V494.495Z" fill="#EEE7D9"/>
<path d="M665.116 432.195C677.468 426.406 690.281 421.593 703.399 417.829C709.805 415.989 716.295 414.397 722.821 413.053C729.477 411.691 736.298 410.302 743.092 409.869C748.964 409.492 755.601 410.449 759.343 415.51C763.086 420.572 760.339 426.701 757.297 431.412C751.388 440.541 742.179 447.59 738.612 458.164C738.298 459.093 738.114 461.569 736.851 461.541C735.312 461.514 733.634 459.756 732.491 458.9C729.191 456.425 725.9 453.949 722.6 451.474C716.009 446.523 709.409 441.563 702.818 436.612C701.398 435.544 700.015 437.937 701.426 438.995C707.657 443.67 713.88 448.354 720.111 453.029C723.162 455.32 726.213 457.612 729.274 459.912C730.767 461.035 732.233 462.305 733.837 463.28C735.072 464.026 736.575 464.578 738.013 464.164C739.451 463.75 740.262 462.397 740.658 460.998C741.055 459.6 741.433 458.33 741.976 457.041C743.101 454.418 744.641 451.98 746.309 449.679C749.757 444.94 753.868 440.725 757.398 436.041C760.929 431.357 764.902 425.182 763.787 418.915C762.763 413.136 757.325 409.05 751.886 407.734C744.899 406.041 737.386 407.651 730.445 408.829C723.503 410.007 716.368 411.535 709.427 413.32C695.434 416.928 681.754 421.731 668.545 427.602C666.922 428.32 665.309 429.066 663.705 429.811C662.101 430.556 663.502 432.949 665.097 432.195H665.116Z" fill="#EEE7D9"/>
<path d="M710.441 417.351C719.623 419.329 727.523 425.513 731.652 433.934C732.436 435.526 734.823 434.127 734.04 432.544C729.624 423.535 720.996 416.808 711.179 414.691C709.446 414.314 708.699 416.974 710.441 417.351Z" fill="#EEE7D9"/>
<path d="M709.455 416.863C708.819 421.639 709.262 426.535 710.709 431.127C711.243 432.811 713.917 432.093 713.373 430.391C711.981 426.001 711.603 421.418 712.211 416.854C712.313 416.118 711.502 415.474 710.829 415.474C709.999 415.474 709.547 416.109 709.446 416.854L709.455 416.863Z" fill="#EEE7D9"/>
<path d="M717.808 418.345C723.302 417.378 729.035 418.52 733.801 421.391C735.331 422.311 736.723 419.928 735.193 419.007C729.763 415.731 723.302 414.59 717.07 415.685C716.333 415.814 715.918 416.716 716.102 417.388C716.314 418.161 717.061 418.483 717.808 418.354V418.345Z" fill="#EEE7D9"/>
<path d="M697.814 353.311C698.302 371.228 692.827 388.483 688.614 405.701C684.328 423.241 680.963 441.011 678.234 458.854C675.506 476.633 673.395 494.495 671.57 512.376C669.735 530.413 668.168 548.477 666.647 566.542C665.873 575.744 665.2 584.956 665.209 594.195C665.218 603.434 665.947 612.315 667.357 621.269C667.707 623.468 668.094 625.668 668.528 627.849C668.869 629.588 671.533 628.852 671.192 627.112C669.459 618.26 668.408 609.296 668.085 600.278C667.753 591.075 668.214 581.873 668.915 572.698C670.288 554.643 671.948 536.606 673.717 518.588C675.478 500.643 677.497 482.707 680.106 464.863C682.714 447.02 685.904 429.351 689.987 411.839C693.997 394.658 699.676 377.587 700.515 359.845C700.616 357.664 700.634 355.473 700.579 353.293C700.533 351.516 697.768 351.516 697.814 353.293V353.311Z" fill="#EEE7D9"/>
<path d="M648.644 476.348C653.852 484.133 658.083 492.554 661.143 501.397C664.204 510.241 666.149 520.17 667.015 529.87C667.937 540.176 668.122 550.538 668.509 560.873C668.896 571.207 669.292 581.873 669.679 592.373C670.122 604.253 670.564 616.125 671.007 628.005C671.071 629.772 673.837 629.781 673.772 628.005C672.979 606.701 672.187 585.397 671.403 564.094C670.647 543.775 670.933 522.949 664.711 503.357C661.521 493.308 656.903 483.71 651.031 474.949C650.045 473.477 647.648 474.857 648.644 476.339V476.348Z" fill="#EEE7D9"/>
<path d="M668.425 536.679C665.033 536.1 663.069 532.621 660.968 530.238C658.47 527.394 655.252 525.554 651.464 527.127C649.196 528.075 647.269 529.796 644.688 529.722C642.107 529.649 639.683 528.02 637.784 526.373C633.599 522.719 630.142 517.998 626.925 513.508C620.223 504.149 614.582 493.989 609.964 483.452C608.765 480.719 607.641 477.949 606.59 475.161C606.12 473.909 605.659 472.649 605.216 471.379C604.848 470.33 604.036 468.627 604.691 467.55C605.225 466.667 606.553 466.529 607.475 466.455C608.784 466.354 610.102 466.363 611.411 466.455C613.798 466.621 616.14 467.09 618.453 467.707C629.22 470.55 639.48 476.541 650.975 474.968C651.722 474.866 652.109 473.919 651.943 473.265C651.731 472.465 650.975 472.198 650.238 472.299C639.747 473.734 629.856 468.02 620.067 465.277C617.578 464.578 615.052 464.053 612.48 463.787C610.047 463.538 607.189 463.326 604.848 464.182C602.257 465.121 601.354 467.477 601.916 470.053C602.543 472.971 603.898 475.879 604.995 478.649C609.438 489.885 615.006 500.698 621.698 510.765C624.998 515.735 628.593 520.52 632.557 524.983C635.922 528.784 640.595 533.118 646.108 532.391C647.564 532.198 648.873 531.609 650.155 530.909C651.371 530.247 652.616 529.382 654.036 529.262C655.842 529.115 657.262 530.311 658.433 531.535C661.17 534.416 663.41 538.603 667.697 539.33C669.439 539.624 670.186 536.965 668.434 536.67L668.425 536.679Z" fill="#EEE7D9"/>
<path d="M673.255 536.661C677.772 536.9 682.28 536.081 686.566 534.692C690.853 533.302 695.01 531.673 698.605 529.17C705.251 524.551 708.625 516.581 708.321 508.603C708.128 503.661 706.662 498.885 704.422 494.495C703.611 492.913 701.223 494.311 702.034 495.885C705.51 502.695 706.846 510.719 704.025 517.999C702.744 521.311 700.559 524.311 697.702 526.437C694.549 528.793 690.742 530.33 687.055 531.618C682.612 533.173 677.993 534.149 673.264 533.891C671.485 533.799 671.495 536.56 673.264 536.652L673.255 536.661Z" fill="#EEE7D9"/>
<path d="M644.246 444.563C638.172 442.308 632.189 439.179 627.598 434.532C622.639 429.517 620.233 423.02 620.86 415.98C621.551 408.268 625.229 401.09 628.935 394.437C632.779 387.526 636.9 380.789 640.79 373.906C644.68 367.023 648.266 360.084 651.114 352.759C653.962 345.434 655.465 338.357 658.212 331.345C659.539 327.967 661.162 324.443 663.466 321.608C664.6 320.219 665.964 319.565 667.734 320.127C669.347 320.642 670.684 321.792 671.836 322.989C674.049 325.28 676.298 327.967 679.635 328.464C682.529 328.897 685.147 327.571 687.111 325.51C689.203 323.32 690.651 320.578 691.96 317.872C693.508 314.67 695.269 311.578 697.269 308.624C701.279 302.716 706.211 297.424 711.806 292.97C713.18 291.875 714.609 290.835 716.074 289.851L714.046 288.295C712.59 293.117 711.124 297.94 709.668 302.762C708.211 307.584 706.598 312.047 705.473 316.768C704.552 320.633 705.059 324.756 709.115 326.486C712.958 328.124 717.568 327.645 721.43 326.338C726.177 324.728 730.39 321.93 734.446 319.068L732.418 318.24C735.552 340.501 738.723 363.406 735.119 385.805C734.105 392.108 732.538 398.32 730.344 404.32C729.735 405.995 732.409 406.713 733.008 405.056C740.954 383.274 740.217 359.651 737.626 336.958C736.88 330.461 735.985 323.992 735.073 317.513C734.953 316.667 733.708 316.216 733.045 316.685C726.988 320.955 719.337 326.302 711.493 324.387C709.861 323.992 708.368 323.2 707.925 321.47C707.501 319.832 707.962 318.047 708.405 316.464C709.612 312.194 710.967 307.97 712.258 303.728C713.742 298.832 715.226 293.936 716.701 289.041C717.033 287.936 715.678 286.795 714.673 287.485C708.552 291.636 703.058 296.66 698.44 302.44C696.172 305.274 694.107 308.255 692.282 311.384C690.558 314.338 689.249 317.513 687.479 320.43C686.134 322.657 684.179 325.427 681.368 325.786C677.976 326.21 675.653 322.915 673.56 320.798C671.228 318.443 667.67 316.188 664.268 317.559C662.554 318.249 661.42 319.694 660.397 321.167C659.373 322.639 658.396 324.341 657.567 326.025C654.174 332.881 652.478 340.381 650.063 347.596C647.464 355.326 643.859 362.661 639.932 369.792C636.005 376.924 631.774 383.808 627.783 390.866C623.791 397.924 619.947 404.974 618.537 412.851C617.237 420.13 618.509 427.492 623.026 433.446C627.082 438.784 632.834 442.593 638.891 445.326C640.412 446.017 641.96 446.642 643.518 447.222C645.187 447.839 645.906 445.17 644.256 444.563H644.246Z" fill="#EEE7D9"/>
<path d="M497.733 642.904C482.127 643.198 466.52 642.931 450.932 642.076C446.462 641.827 441.991 641.533 437.529 641.201L438.23 643.778C441.382 642.223 444.959 641.588 448.434 641.22C452.37 640.806 456.343 640.668 460.298 640.585C468.585 640.41 476.872 640.723 485.123 641.523C487.353 641.744 489.584 641.993 491.796 642.287C493.437 642.508 495.714 642.637 496.968 643.842C498.221 645.048 500.203 643.125 498.922 641.892C497.714 640.723 496.064 640.226 494.442 639.922C492.469 639.545 490.46 639.352 488.459 639.122C484.062 638.625 479.647 638.266 475.222 638.045C466.594 637.612 457.846 637.576 449.236 638.385C444.977 638.79 440.691 639.49 436.819 641.404C435.492 642.057 436.266 643.879 437.52 643.98C453.062 645.158 468.65 645.766 484.247 645.803C488.745 645.803 493.234 645.775 497.724 645.683C499.503 645.646 499.503 642.885 497.724 642.922L497.733 642.904Z" fill="#EEE7D9"/>
<path d="M436.193 642.49C439.087 661.695 444.323 680.505 451.504 698.551C453.587 703.788 455.837 708.959 458.215 714.067C458.961 715.677 461.349 714.278 460.602 712.677C452.38 695.054 445.936 676.594 441.779 657.6C440.627 652.355 439.659 647.073 438.857 641.763C438.589 640.014 435.925 640.76 436.193 642.499V642.49Z" fill="#EEE7D9"/>
<path d="M497.153 643.198C492.065 661.336 486.589 679.364 480.717 697.263C479.03 702.407 477.306 707.542 475.564 712.658C474.993 714.343 477.657 715.07 478.228 713.395C484.34 695.505 490.074 677.487 495.402 659.358C496.913 654.223 498.388 649.088 499.826 643.934C500.306 642.223 497.642 641.486 497.162 643.198H497.153Z" fill="#EEE7D9"/>
<path d="M657.741 628.29C671.199 625.907 684.916 625.916 698.54 625.98C700.024 625.98 701.527 625.943 702.993 626.146C704.643 626.367 706.164 627.002 707.648 627.738C707.97 627.904 708.431 628.253 708.782 628.318L709.058 628.465C708.92 627.996 708.643 627.821 708.238 627.959C707.546 627.867 706.726 628.023 706.025 628.032C704.246 628.069 702.467 628.042 700.688 628.042C697.434 628.042 694.263 628.327 691.018 628.585C687.773 628.842 684.261 628.861 680.878 628.833C673.255 628.787 665.622 628.87 658.008 628.253C656.238 628.115 656.247 630.876 658.008 631.014C665.466 631.612 672.951 631.539 680.436 631.585C684.105 631.612 687.792 631.621 691.451 631.299C695.111 630.977 698.752 630.784 702.458 630.793C704.302 630.793 706.154 630.812 708.007 630.71C709.482 630.628 711.141 630.259 711.575 628.621C712.045 626.809 710.358 625.999 709.04 625.336C707.491 624.563 705.878 623.845 704.163 623.532C700.66 622.897 696.927 623.192 693.378 623.192C689.636 623.192 685.884 623.21 682.141 623.312C673.725 623.532 665.309 624.149 657.012 625.621C655.261 625.934 656.008 628.594 657.75 628.281L657.741 628.29Z" fill="#EEE7D9"/>
<path d="M709.233 628.391C708.247 656.542 703.619 684.379 698.826 712.088C697.72 718.484 696.706 724.916 695.056 731.192C694.254 734.266 693.295 737.312 692.087 740.257C691.516 741.656 690.88 743.045 690.17 744.38C689.46 745.714 688.723 746.8 687.137 746.892C685.552 746.984 683.929 746.781 682.353 746.708C680.537 746.625 678.712 746.551 676.896 746.469C673.328 746.312 669.77 746.156 666.203 745.999C664.488 745.926 662.764 745.907 661.059 745.769C659.566 745.65 658.847 744.748 658.146 743.496C656.616 740.745 655.279 737.855 653.989 734.993C647.988 721.714 643.886 707.597 641.71 693.195C641.443 691.447 638.779 692.192 639.046 693.932C641.074 707.34 644.789 720.444 650.089 732.932C651.454 736.153 652.919 739.327 654.496 742.447C655.722 744.876 656.966 747.867 659.962 748.419C661.474 748.696 663.078 748.631 664.617 748.696C666.59 748.778 668.563 748.87 670.535 748.953C674.176 749.11 677.818 749.275 681.459 749.432C683.22 749.505 684.999 749.662 686.769 749.653C688.262 749.653 689.617 749.285 690.742 748.281C691.866 747.278 692.484 745.99 693.101 744.72C693.885 743.128 694.586 741.49 695.231 739.834C697.627 733.603 698.992 727.051 700.172 720.499C702.744 706.189 705.186 691.833 707.27 677.45C709.63 661.189 711.445 644.827 712.017 628.401C712.082 626.625 709.316 626.625 709.252 628.401L709.233 628.391Z" fill="#EEE7D9"/>
</g>
<defs>
<clipPath id="clip0_838_7">
<rect width="764" height="974" fill="white"/>
</clipPath>
</defs>
</svg>
