<svg width="508" height="171" viewBox="0 0 508 171" fill="none" xmlns="http://www.w3.org/2000/svg">
<g clip-path="url(#clip0_828_228)">
<path d="M386.904 94.7444C386.209 95.7613 385.665 96.5009 385.167 97.2751C380.05 105.318 373.937 112.482 366.47 118.399C362.615 121.449 358.343 123.506 353.18 122.593C348.271 121.738 345.053 118.179 344.532 113.118C343.941 107.398 345.192 101.944 347.623 96.94C354.06 83.6973 360.797 70.5932 367.477 57.4776C369.527 53.4562 371.784 49.5504 373.949 45.5753C373.729 45.4135 373.497 45.2517 373.277 45.0899C372.05 46.65 370.835 48.2331 369.596 49.7815C366.875 53.2135 364.051 56.4953 359.767 58.09C355.067 59.8349 350.401 59.3496 348.885 53.7682C347.993 50.4749 345.851 49.9202 342.668 51.5149C336.879 54.4038 332.677 59.1647 329.424 64.5496C323.137 74.9728 317.291 85.6617 311.34 96.3044C307.254 103.608 303.352 111.015 299.289 118.318C298.826 119.161 297.83 120.271 297.066 120.282C290.027 120.433 282.977 120.375 275.266 120.375C283.799 104.659 292.076 89.4057 300.354 74.1523C300.145 74.0021 299.925 73.8519 299.717 73.7016C298.941 74.7185 298.154 75.7239 297.402 76.7639C289.645 87.4182 281.946 98.1187 274.109 108.704C270.578 113.476 266.595 117.856 261.177 120.537C254.937 123.622 250.63 121.033 250.353 114.031C250.075 107.097 252.101 100.719 255.354 94.7098C262.694 81.1088 270.242 67.6118 277.431 53.9184C280.001 49.0304 281.807 43.7379 283.88 38.5957C284.354 37.4286 284.702 36.1228 284.69 34.8863C284.69 33.8232 284.377 32.2748 283.66 31.8241C282.907 31.3619 281.194 31.5583 280.453 32.1592C278.01 34.1468 275.579 36.2383 273.576 38.6535C261.652 53.0402 251.395 68.5478 242.654 85.107C236.75 96.2813 230.498 107.282 224.339 118.318C223.864 119.161 222.88 120.271 222.105 120.282C214.985 120.433 207.876 120.375 200.212 120.375C208.884 104.497 217.312 89.0591 225.74 73.6208C225.589 73.5052 225.427 73.3896 225.277 73.2741C224.918 73.6785 224.524 74.0483 224.212 74.4759C215.98 85.5577 207.934 96.7667 199.472 107.664C195.223 113.141 189.839 117.532 183.449 120.479C173.875 124.893 165.62 120.675 164.034 110.148C162.772 101.793 164.694 93.6466 167.276 85.731C168.445 82.1372 170.054 78.6821 171.085 74.8341C170.436 75.5968 169.765 76.3363 169.163 77.1221C162.031 86.5399 155.166 96.1773 147.676 105.295C143.74 110.09 138.877 114.169 134.119 118.202C131.329 120.571 127.81 122.212 124.082 120.132C120.47 118.121 120.69 114.435 120.806 110.934C120.991 104.879 122.889 99.2742 125.737 94.0511C132.313 81.9986 139.039 70.027 145.696 58.0207C146.252 57.0153 146.727 55.9753 147.444 54.5656C146.252 54.4153 145.499 54.242 144.735 54.242C136.597 54.2189 128.446 54.2882 120.308 54.1842C118.282 54.1611 117.263 55.0393 116.267 56.6802C107.087 71.8412 98.1146 87.1408 88.4826 102.001C81.7679 112.355 73.4324 121.449 62.5384 127.609C47.3262 136.218 31.732 136.252 16.3461 128.29C4.65328 122.235 -1.67936 107.744 0.381355 93.5542C3.47242 72.211 21.4979 55.9753 42.8806 55.2473C43.7489 55.2127 44.6172 55.2473 45.5897 55.7096C43.8994 56.4722 42.186 57.1656 40.5421 57.9976C31.9635 62.3078 31.0258 73.8172 38.8866 79.3639C45.5897 84.0901 53.0916 84.3328 60.7671 82.7381C78.6884 79.0288 93.3681 69.8305 105.512 56.1487C119.277 40.6295 130.461 23.3538 140.498 5.24618C140.707 4.86484 140.811 4.41418 141.019 3.8364C140.475 3.60528 140.023 3.25861 139.549 3.24706C127.879 2.70394 116.221 2.54217 104.702 4.94573C99.6312 6.00885 95.1972 8.2622 91.4 11.8907C87.3943 15.7156 85.9472 20.3609 86.4913 25.7574C87.4175 34.9672 96.7254 40.3868 105.188 36.3539C108.256 34.8863 110.838 32.4019 113.269 30.6454C111.822 40.745 104.355 49.8971 94.6994 51.6651C78.6421 54.6002 66.1273 43.2064 70.4108 25.7921C72.8651 15.8311 80.286 10.1111 89.0035 6.08974C99.226 1.35194 110.224 0.173265 121.315 0.0230419C129.5 -0.0809587 137.685 0.173265 146.773 0.277265C141.077 10.816 135.844 20.4765 130.391 30.5761C131.7 30.7148 132.452 30.865 133.205 30.865C141.529 30.8765 149.852 30.8188 158.176 30.9228C160.121 30.9459 161.094 30.137 161.962 28.5307C166.57 19.9565 171.305 11.4631 175.889 2.87728C176.873 1.03994 177.996 0.311932 180.277 1.15549C177.058 7.0373 173.84 12.792 170.737 18.6276C164.764 29.8596 158.848 41.1379 152.932 52.3931C152.677 52.8669 152.527 53.41 152.341 53.9184C148.567 64.1452 154.993 72.1185 165.898 70.8821C172.022 70.1887 176.422 66.8029 180.149 62.2616C185.394 55.8713 190.499 49.3655 195.825 43.0446C200.676 37.2784 206.406 32.5752 213.468 29.7556C217.277 28.2303 221.225 27.849 225.126 29.2587C230.093 31.0499 232.408 34.7014 232.2 39.9824C231.76 51.2144 219.28 61.3025 208.247 59.3727C203.628 58.5638 200.074 55.2127 199.668 51.5842C202.401 52.8091 205.167 54.5656 208.177 55.3282C217.161 57.57 228.009 49.4233 228.796 40.1326C229.167 35.7068 225.728 31.8934 221.063 31.7201C219.824 31.6739 218.516 31.8588 217.323 32.2054C205.642 35.649 195.13 45.0899 193.752 57.4082C192.583 67.7736 197.365 75.7817 209.069 75.1461C215.853 74.7763 221.804 72.315 226.747 67.7736C229.306 65.4278 231.644 62.6083 233.381 59.5922C238.15 51.3184 242.573 42.8597 247.042 34.4126C247.875 32.8294 248.848 32.2054 250.642 32.2285C256.326 32.3325 262.011 32.2632 268.343 32.2632C263.319 41.7388 258.526 50.7753 253.745 59.8118C253.976 59.9505 254.219 60.0891 254.451 60.2394C256.303 57.4891 258.098 54.6927 260.031 52.0118C264.071 46.4188 268.008 40.7219 272.384 35.3948C274.398 32.9334 277.084 30.7841 279.874 29.2472C284.783 26.5316 288.325 28.7156 287.804 34.2161C287.445 38.0295 286.172 41.8313 284.887 45.4828C282.757 51.5033 280.476 57.4429 280.719 63.9949C280.87 68.0394 281.414 72.0723 285.234 74.2332C289.124 76.4288 292.62 74.1639 295.827 72.107C303.294 67.323 308.353 60.4127 312.475 52.6704C315.728 46.5691 319.132 40.5486 322.35 34.4357C323.184 32.8641 324.156 32.1939 325.951 32.2285C331.369 32.3325 336.775 32.2632 342.888 32.2632C337.331 42.4899 332.029 52.2313 326.738 61.9843C326.923 62.0883 327.108 62.2038 327.293 62.3194C329.563 58.7718 331.612 55.0393 334.147 51.6998C339.091 45.2055 344.184 38.8268 349.452 32.6214C351.767 29.8828 354.905 28.1147 358.667 27.9645C362.256 27.8259 364.062 29.3859 364.398 32.9912C364.618 35.4294 364.49 37.937 364.988 40.329C365.868 44.6277 368.45 45.7948 371.772 43.0446C374.933 40.4215 377.445 37.0126 380.328 34.0428C381.185 33.1645 382.342 32.5868 383.361 31.8703C383.639 32.1477 383.905 32.4134 384.183 32.6908C382.991 35.0712 381.671 37.4055 380.617 39.8437C377.735 46.5113 374.539 53.0864 372.247 59.962C369.029 69.611 373.984 76.3363 385.595 74.8341C391.152 74.1177 395.54 70.9745 398.376 66.3985C402 60.5629 404.999 54.3229 408.009 48.1291C410.197 43.6339 412.049 38.977 413.913 34.3317C414.7 32.3903 415.823 31.8703 418.092 32.7485C404.142 65.4394 390.203 98.0724 376.102 131.11C380.756 132.3 384.982 133.525 389.277 134.438C399.963 136.714 410.59 139.43 421.392 140.909C435.087 142.781 448.609 142.007 461.112 134.704C470.513 129.203 476.903 120.976 482.68 112.066C483.271 111.153 483.803 110.206 484.533 108.969C488.677 111.269 492.764 113.534 496.828 115.81C499.988 117.578 503.091 119.473 506.309 121.126C508.057 122.016 508.312 123.009 507.698 124.824C500.81 145.531 486.431 158.231 465.917 164.078C452.951 167.776 439.926 166.204 426.995 163.339C410.637 159.71 395.447 152.869 380.201 146.144C378.047 145.196 375.871 144.295 373.706 143.394C373.474 143.301 373.185 143.336 372.699 143.29C371.784 145.092 370.916 146.976 369.885 148.778C361.897 162.703 350.563 171.312 333.985 171.035C330.72 170.977 327.305 170.237 324.226 169.082C308.77 163.235 310.495 143.856 320.533 135.963C329.389 128.995 339.6 125.991 350.737 126.823C357.197 127.297 363.599 128.602 370.047 129.4C370.893 129.504 372.386 129.053 372.664 128.441C377.584 117.59 382.365 106.681 387.158 95.7729C387.216 95.6573 387.077 95.4493 386.88 94.8022L386.904 94.7444Z" fill="#EB5B25"/>
<path d="M418.195 104.786C418.172 97.2636 421.148 90.6885 425.327 84.8182C431.486 76.1746 438.177 67.9124 444.649 59.4883C446.362 57.2581 447.937 54.9007 449.812 52.8092C453.841 48.3371 455.774 43.5647 455.404 37.186C454.883 28.161 462.339 19.945 471.16 18.2348C474.934 17.5068 476.636 19.1939 476.011 23.0535C474.506 32.2633 468.903 38.8615 462.026 44.4313C459.838 46.1994 459.63 47.7594 460.232 50.1976C462.802 60.5168 465.615 70.8013 467.629 81.236C469.713 92.0289 468.729 102.683 461.447 111.512C453.737 120.86 443.514 124.408 431.613 122.386C423.162 120.953 418.207 114.227 418.207 104.786H418.195ZM456.724 50.2669C456.423 50.1745 456.133 50.082 455.832 49.9896C454.385 51.8269 452.776 53.5487 451.514 55.5016C447.902 61.0368 444.313 66.6066 440.967 72.2919C439.601 74.6031 440.203 77.076 442.056 79.0982C443.908 81.1204 446.223 81.4902 448.77 80.8084C452.776 79.7222 455.207 76.9488 456.735 73.2279C459.919 65.5203 457.592 57.9052 456.735 50.2669H456.724Z" fill="#EB5B25"/>
<path d="M432.298 55.906C429.554 50.8446 427.088 46.3264 424.657 41.785C424.46 41.4268 424.321 40.8259 424.483 40.5024C426.996 35.6143 429.554 30.7494 432.425 25.2952C435.435 30.5414 438.144 35.2099 440.737 39.9361C441.004 40.4099 440.737 41.3806 440.425 41.9468C437.878 46.4304 435.25 50.8793 432.309 55.906H432.298Z" fill="#EB5B25"/>
</g>
<defs>
<clipPath id="clip0_828_228">
<rect width="508" height="171" fill="white"/>
</clipPath>
</defs>
</svg>
