<svg fill="none" height="974" viewBox="0 0 764 974" width="764" xmlns="http://www.w3.org/2000/svg" xmlns:xlink="http://www.w3.org/1999/xlink"><clipPath id="a"><path d="m0 0h764v974h-764z"/></clipPath><g clip-path="url(#a)" fill="#f15a24"><path d="m213.723 697.723c18.27 2.172 36.246 6.81 53.29 13.73 3.604 1.463 8.259 2.834 9.707 6.856.709 1.978.829 4.123 1.032 6.193.24 2.43.489 4.868.728 7.298.977 9.727 1.954 19.454 2.932 29.19 1.097 10.942 2.194 21.893 3.29 32.835.176 1.748 2.941 1.766 2.766 0-2.028-20.218-4.056-40.436-6.084-60.654-.24-2.429-.489-4.868-.728-7.298-.231-2.282-.36-4.61-.867-6.855-.451-1.979-1.318-3.866-2.784-5.31-1.465-1.445-3.254-2.356-5.079-3.166-8.6-3.782-17.542-6.874-26.594-9.386-10.361-2.881-20.935-4.933-31.618-6.194-1.761-.211-1.752 2.549 0 2.761z"/><path d="m215.519 695.533c-4.194-27.442-10.066-54.617-17.598-81.341-.912-3.23-1.834-6.469-2.811-9.681-.811-2.65-1.761-5.31-3.522-7.5-3.042-3.782-8.139-5.015-12.739-5.549-4.876-.561-9.79-.295-14.675-.239-6.37.064-12.749-.322-19.119-.387-14.168-.147-28.346.138-42.514.635-7.107.249-14.2142.561-21.3214.884-6.3882.294-12.7948.579-19.1553 1.334s-12.8685 2.034-19.0355 4.132c-2.0925.718-4.1481 1.426-5.6691 3.11-1.2814 1.427-2.0926 3.212-2.535 5.071-.9495 3.966-.59 8.162-.1014 12.156.5899 4.749 1.1338 9.497 1.7238 14.246 3.4291 27.534 10.9511 54.359 14.6107 81.847.4517 3.395.8389 6.8 1.1615 10.205.1659 1.758 2.9314 1.767 2.7655 0-2.535-27.092-9.6607-53.429-14.0485-80.227-1.0601-6.488-1.8436-12.994-2.5719-19.537-.4148-3.755-1.1154-7.463-1.2997-11.245-.1659-3.405-.1844-7.629 2.1109-10.418 1.4381-1.757 3.7426-2.3 5.8167-2.972 2.9959-.966 6.0471-1.748 9.126-2.365 12.6472-2.54 25.7739-2.577 38.624-3.11 13.9097-.58 27.8297-.994 41.7577-1.04 6.877-.028 13.763.037 20.64.211 5.217.138 10.398.138 15.615.102 4.656-.028 9.532.046 13.957 1.684 2.129.782 4.074 2.07 5.328 3.993 1.595 2.43 2.304 5.338 3.116 8.099 7.623 25.923 13.679 52.297 18.141 78.948.544 3.221 1.051 6.442 1.549 9.672.267 1.748 2.931 1.003 2.664-.737z"/><path d="m94.5121 835.033 8.0659.378 4.037.193c1.125.055 2.333.221 3.43-.138 2.065-.681 2.461-2.899 2.461-4.795 0-2.742-.055-5.484-.046-8.236.027-10.978.387-21.957 1.088-32.908.396-6.239.912-12.469 1.53-18.69.175-1.767-2.591-1.758-2.766 0-1.014 10.242-1.742 20.512-2.166 30.791-.212 5.108-.35 10.206-.415 15.313-.037 2.595-.046 5.181-.037 7.776 0 1.224 0 2.439.019 3.663.009 1.141.166 2.365-.028 3.497-.212 1.251-1.115 1.058-2.175 1.003-1.42-.064-2.84-.129-4.259-.202-2.913-.138-5.826-.277-8.7389-.415-1.7791-.082-1.7791 2.678 0 2.761z"/><path d="m114.48 769.953c17.938-4.73 36.153-8.954 54.663-10.638 4.573-.414 9.154-.671 13.745-.717 4.59-.046 9.061-.24 13.615-.921 9.402-1.426 18.611-3.837 28.032-5.208 11.136-1.629 22.317-2.927 33.527-3.921 1.76-.156 1.779-2.917 0-2.76-9.947.883-19.865 2.006-29.757 3.377-4.821.672-9.642 1.344-14.417 2.291-4.775.948-9.356 2.007-14.057 2.872-4.702.865-9.329 1.5-14.058 1.509-4.563 0-9.117.129-13.671.469-9.365.709-18.666 2.107-27.884 3.884-10.242 1.978-20.373 4.444-30.457 7.095-1.715.451-.987 3.119.737 2.659z"/><path d="m256.577 746.818c-.276 15.129.443 30.277 2.185 45.313.488 4.234 1.06 8.467 1.705 12.681.267 1.749 2.932 1.004 2.664-.736-2.885-18.938-4.139-38.107-3.788-57.258.036-1.776-2.729-1.776-2.766 0z"/><path d="m284.462 791.561c.258 5.328.958 10.619 2.083 15.837l1.337-1.748c-4.315 0-8.629 0-12.943.009-2.12 0-4.24 0-6.36 0-1.06 0-2.12 0-3.18 0-.526 0-1.061 0-1.586 0h-.913c-.608-.147-.654.166-.138.911.71-1.61-1.668-3.018-2.387-1.389-.397.892-.378 1.812.359 2.53.867.847 2.194.709 3.3.709h7.946c5.301 0 10.601 0 15.902-.009.94 0 1.521-.875 1.336-1.749-1.078-4.978-1.742-10.012-1.991-15.101-.083-1.767-2.848-1.776-2.765 0z"/><path d="m94.2361 832.723c-1.1154-20.54-1.7607-41.107-1.9359-61.684-.046-5.788-.0553-11.577-.0368-17.374 0-1.776-2.7563-1.776-2.7655 0-.0922 20.567.2858 41.144 1.1339 61.703.2396 5.788.5162 11.567.8296 17.355.0922 1.767 2.8576 1.776 2.7654 0z"/><path d="m89.1749 764.653c-16.0488-3.865-32.0515-7.933-47.9989-12.193-1.7238-.461-2.452 2.199-.7375 2.659 15.9474 4.261 31.9501 8.328 47.9989 12.193 1.733.414 2.4705-2.245.7375-2.659z"/><path d="m34.4935 605.523c-4.8764 4.491-9.4947 9.249-13.8088 14.273-1.9819 2.31-3.7334 4.519-4.0284 7.657-.2949 3.138.3411 6.718.6269 9.957 1.1983 13.758 2.5811 27.506 3.9914 41.255 2.8116 27.478 5.7522 54.948 7.6419 82.509 1.0601 15.433 1.7883 30.893 1.9911 46.353 0 .699.6268 1.445 1.3827 1.38 5.4203-.441 10.8406-.892 16.2608-1.334.7651-.064 1.3551-.58 1.3828-1.38.5162-16.611.4885-33.24-.0738-49.85-.0645-1.776-2.83-1.776-2.7654 0 .5623 16.61.5899 33.239.0737 49.85l1.3827-1.381c-5.4202.442-10.8405.893-16.2608 1.335l1.3827 1.38c-.3595-27.304-2.3598-54.552-4.904-81.736-2.535-27.056-5.5862-54.065-8.0659-81.12-.3503-3.783-.6821-7.556-1.0048-11.338-.1567-1.868-.4332-3.791-.2949-5.669.129-1.674.9125-3.073 1.9358-4.362 4.5076-5.696 9.7804-10.904 15.1085-15.819 1.309-1.205-.6453-3.156-1.9542-1.951z"/><path d="m213.261 695.579c-17.966.46-35.803 2.797-53.576 5.264-17.773 2.466-35.969 5.033-53.945 7.601-10.2042 1.454-20.3994 2.926-30.5947 4.408-1.7514.258-1.0048 2.917.7375 2.659 17.9016-2.595 35.8122-5.162 53.7322-7.693 17.791-2.512 35.582-5.218 53.438-7.242 10.038-1.141 20.114-1.988 30.217-2.246 1.779-.046 1.779-2.806 0-2.76z"/><path d="m221.706 686.128c-2.222-10.123-4.48-20.227-6.656-30.359-2.12-9.92-3.558-19.785-2.774-29.945.387-5.061 1.152-10.123 2.23-15.092.461-2.098 1.088-4.049 2.812-5.466s3.844-2.347 5.771-3.368c4.24-2.246 8.6-4.289 13.209-5.632 4.609-1.344 9.753-1.85 14.74-1.905 10.287-.12 20.602.405 30.89.653 10.287.249 20.916.497 31.379.755 5.07.12 10.139.202 15.2.368 4.185.138 8.619.405 12.445 2.291 8.084 3.976 10.029 14.089 10.988 22.178 1.18 10.013.673 20.126 1.263 30.166.58 10.003 2.018 19.97 4.305 29.724.571 2.448 1.198 4.878 1.871 7.298.479 1.711 3.143.984 2.664-.736-2.83-10.132-4.757-20.513-5.688-30.985-.922-10.335-.47-20.724-1.235-31.068-.636-8.678-1.807-19.187-8.259-25.721-6.453-6.534-16.953-5.889-25.544-6.092-21.58-.515-43.159-1.086-64.739-1.546-5.208-.11-10.426-.092-15.579.736-4.876.783-9.531 2.448-14.011 4.5-2.24 1.031-4.425 2.154-6.591 3.332-1.927 1.04-3.992 2.043-5.568 3.589s-2.406 3.671-2.904 5.834c-.562 2.457-.986 4.951-1.373 7.436-.802 5.171-1.309 10.389-1.3 15.626.009 5.236.608 10.26 1.475 15.331 1.788 10.417 4.342 20.724 6.609 31.049.572 2.595 1.143 5.19 1.706 7.785.378 1.74 3.051 1.003 2.664-.736z"/><path d="m270.561 692.883c20.99-.875 41.979-1.758 62.969-2.632 10.49-.442 20.99-.875 31.48-1.316 5.282-.221 10.573-.442 15.855-.663 5.107-.212 10.214-.543 15.321-.626 2.415-.036 5.033.065 7.107 1.454 1.816 1.215 2.885 3.203 3.807 5.117 2.434 5.015 4.047 10.445 4.683 15.975.203 1.749 2.968 1.767 2.765 0-.581-4.996-1.816-9.846-3.761-14.484-1.631-3.893-3.567-8.117-7.715-9.828-2.167-.893-4.573-1.031-6.886-.994-2.508.036-5.006.193-7.513.294-5.513.23-11.034.46-16.547.69-21.598.902-43.205 1.813-64.803 2.715-12.26.515-24.511 1.031-36.771 1.537-1.77.073-1.78 2.834 0 2.761z"/><path d="m365.629 740.662c-15.505-.147-31.01.755-46.395 2.742-3.78.488-7.55 1.031-11.311 1.648-1.936.312-3.862.644-5.789.993-1.576.286-3.42.405-4.729 1.418-1.217.938-1.567 2.383-1.705 3.837-.166 1.804-.212 3.635-.286 5.448-.157 3.911-.212 7.822-.166 11.733.092 8.724.673 17.448 1.733 26.108l1.014-1.335c-2.885 1.095-5.872 1.684-8.969 1.721-1.779.028-1.779 2.788 0 2.761 3.318-.046 6.591-.644 9.697-1.822.516-.194 1.088-.7 1.014-1.335-.894-7.389-1.456-14.825-1.659-22.27-.101-3.681-.111-7.371-.037-11.061.037-1.804.092-3.607.175-5.411.074-1.693-.083-3.663.369-5.31.378-1.39 1.954-1.399 3.171-1.629 1.927-.349 3.853-.69 5.78-1.012 3.742-.617 7.485-1.178 11.246-1.675 7.31-.957 14.657-1.666 22.022-2.135 8.26-.524 16.547-.745 24.825-.662 1.779.018 1.779-2.743 0-2.761z"/><path d="m325.363 593.836c1.235-1.794.931-4.159-.258-5.908-1.3-1.905-3.448-2.806-5.669-3.138-2.618-.386-5.328-.313-7.965-.386-3.042-.092-6.084-.175-9.126-.267-11.513-.341-23.036-.773-34.559-.681-11.467.092-22.962.754-34.282 2.669-5.568.938-11.016 2.438-16.574 3.451-2.6.469-5.19.635-7.808.846-2.258.175-4.544.479-6.582 1.509-4.848 2.448-5.309 8.071-4.968 12.875.47 6.625 1.06 13.251 1.595 19.877.138 1.758 2.903 1.776 2.765 0-.442-5.485-.876-10.969-1.318-16.445-.304-3.846-1.42-9.331 1.456-12.515s8.361-2.466 12.233-2.954c5.19-.654 10.232-2.089 15.357-3.12 21.054-4.242 42.689-3.616 64.039-2.991 6.084.175 12.168.359 18.252.534 2.737.083 5.779-.175 8.425.635 1.853.561 4.001 2.632 2.618 4.629-1.005 1.472 1.383 2.853 2.387 1.39z"/><path d="m61.1905 1.33447c-.5439 10.71173.212 21.46943 2.24 31.99703.2396 1.2239.4885 2.4571.7651 3.6718.2581 1.1595.424 2.4386.9955 3.4969 1.1892 2.2178 3.8809 1.8589 6.0195 1.8957 5.5124.1013 11.0249.1565 16.5466.1841 11.1816.046 22.3628-.0552 33.5448-.3037 5.512-.1196 11.025-.2761 16.537-.4785 4.204-.1565 8.665-.6994 11.237-4.4448 1.401-2.043 1.936-4.5644 2.351-6.9663.516-2.9448.857-5.9264 1.032-8.908.341-6-.073-12.01844-1.133-17.93563-.314-1.74848-2.978-1.00307-2.665.73619.885 4.95094 1.263 9.97554 1.125 15.00004-.12 4.6197-.461 9.5522-1.834 13.9878-.6 1.9325-1.623 3.6258-3.457 4.5828-1.835.9571-3.835 1.0675-5.771 1.1595-5.033.2393-10.084.3405-15.117.4602-10.334.2484-20.677.3681-31.0195.3681-5.1345 0-10.2598-.0369-15.3943-.1013-2.5995-.0368-5.2083-.0736-7.8078-.1288-1.0693-.0184-1.6685.0368-1.9819-1.0859-.3411-1.2331-.59-2.5031-.8573-3.7638-2.3137-10.9786-3.1434-22.224-2.5811-33.42343.0922-1.776079-2.6732-1.766877-2.7654 0z"/><path d="m106.239 63.4512c-.729 17.6043-.194 35.2455 1.613 52.7758.184 1.749 2.95 1.767 2.765 0-1.807-17.5303-2.341-35.1715-1.613-52.7758.074-1.7761-2.692-1.7761-2.765 0z"/><path d="m105.271 112.188c-8.0939.791-15.8279 3.303-23.1747 6.745-7.3469 3.442-14.5094 7.684-21.0819 12.46-6.4527 4.684-11.9652 10.279-15.7539 17.338-3.7886 7.058-6.1485 15.064-7.7248 22.969-2.7285 13.693-2.7838 28.123 1.7791 41.439 4.563 13.316 13.3756 24.819 24.7969 32.742 11.8453 8.218 26.2625 12.221 40.4583 13.758 7.153.773 14.371.874 21.552.423 7.679-.478 15.404-1.721 22.456-4.914 14.195-6.442 22.289-21.092 27.672-34.997 5.753-14.889 8.297-31.242 6.324-47.135-1.825-14.724-7.411-29.66-18.252-40.169-11.67-11.319-28.207-15.064-43.666-18.073-4.36-.847-8.748-1.592-13.145-2.246-1.743-.258-2.489 2.402-.738 2.66 8.444 1.251 16.851 2.816 25.147 4.849 7.439 1.822 14.842 4.16 21.497 8.016 12.564 7.288 20.4 20.07 24.17 33.819 4.102 14.963 3.623 30.911-.249 45.865-1.926 7.454-4.673 14.687-8.176 21.543-3.273 6.414-7.255 12.598-12.657 17.43-11.163 9.993-27.267 11.125-41.574 10.822-14.306-.304-27.6818-2.761-40.0986-8.678-12.3524-5.881-22.649-15.663-29.0649-27.746-6.4158-12.083-8.1488-24.929-7.0887-37.969.6176-7.546 2.1847-15.055 4.4984-22.261 2.3322-7.27 5.7061-14.291 10.9696-19.914 5.2636-5.623 11.9191-9.92 18.5377-13.859 6.6187-3.939 13.8826-7.629 21.4599-9.911 3.6319-1.095 7.3556-1.878 11.1266-2.246 1.751-.174 1.77-2.935 0-2.76z"/><path d="m85.7196 120.203c-1.6316 19.721-3.2632 39.497-2.9037 59.31.3318 18.248 2.3875 36.58 7.5589 54.129 2.8207 9.58 6.5909 18.902 11.4032 27.663.857 1.555 3.244.165 2.387-1.39-8.5359-15.525-13.5598-32.706-16.1962-50.163-2.8207-18.672-2.8299-37.656-1.8713-56.475.5624-11.034 1.4749-22.05 2.3875-33.065.1475-1.767-2.6179-1.758-2.7654 0z"/><path d="m61.9928 132.746c-1.0693 17.954-3.7333 35.797-4.1205 53.788-.3318 15.424 1.1431 31.151 6.5357 45.709 2.9314 7.923 7.0058 15.359 12.3615 21.911 1.1246 1.381 3.0697-.589 1.9543-1.951-9.3749-11.466-14.3803-25.803-16.6296-40.288-2.5442-16.371-1.4196-33.046.0922-49.464.9126-9.901 1.9819-19.785 2.5719-29.705.1014-1.776-2.6641-1.767-2.7655 0z"/><path d="m127.366 255.728c4.775-18.074 7.753-36.608 8.896-55.261 1.134-18.589.415-37.261-2.12-55.712-1.208-8.788-2.489-18.414-8.841-25.16-1.216-1.297-3.171.654-1.954 1.951 5.43 5.761 6.693 14.034 7.79 21.562 1.309 8.954 2.157 17.972 2.581 27.018.848 18.267-.065 36.645-2.784 54.727-1.521 10.151-3.614 20.218-6.241 30.148-.452 1.721 2.212 2.457 2.664.736z"/><path d="m151.418 129.718c5.503 15.35 8.905 31.418 10.094 47.678 1.189 16.252.249 32.66-2.885 48.654-1.77 9.037-4.241 17.926-7.366 26.586-.608 1.675 2.065 2.393 2.664.736 5.605-15.497 9.034-31.748 10.306-48.175 1.263-16.426.323-33.018-2.765-49.196-1.752-9.175-4.222-18.212-7.375-27.01-.599-1.656-3.272-.948-2.664.737z"/><path d="m46.3391 151.114c15.7999-4.886 32.0699-8.218 48.5335-9.883 16.4634-1.666 33.0374-1.712 49.4734-.138 9.274.892 18.492 2.319 27.609 4.251 1.733.368 2.479-2.291.737-2.659-16.353-3.47-33.038-5.31-49.759-5.476-16.713-.175-33.4438 1.316-49.8613 4.426-9.2735 1.758-18.4455 4.04-27.4609 6.829-1.6961.524-.9679 3.193.7375 2.659z"/><path d="m40.025 173.439c18.4179-2.043 36.9187-3.377 55.438-4.003 18.519-.616 37.066-.524 55.576.295 4.692.202 9.449.276 14.104.929 4.056.571 8.167 1.721 11.329 4.436 1.346 1.159 3.309-.792 1.954-1.951-5.936-5.108-14.011-5.503-21.469-5.89-9.476-.497-18.971-.8-28.465-.92-18.907-.239-37.8317.267-56.7012 1.528-10.6101.708-21.2018 1.647-31.775 2.815-1.7514.194-1.7699 2.954 0 2.761z"/><path d="m97.6666 43.6474c.9034 3.5154 1.8344 7.0215 2.8114 10.5185.765 2.7331 1.392 5.9632 3.752 7.8221 1.189.9386 2.609 1.3067 4.084 1.5184 1.474.2116 3.014.3957 4.037-.9111.913-1.1503 1.281-2.9172 1.687-4.2975.489-1.6381.885-3.3129 1.189-4.997.692-3.8098.922-7.6841.682-11.5491-.11-1.7669-2.876-1.7761-2.765 0 .23 3.681.055 7.3804-.618 11.0062-.35 1.8681-.811 3.727-1.382 5.5399-.231.7362-.406 1.6656-.812 2.319-.332.5521-1.023.2669-1.631.184-1.512-.2208-2.849-.6717-3.697-2.0245s-1.217-3.0184-1.65-4.5552c-1.051-3.7546-2.055-7.5185-3.023-11.3007-.4428-1.7208-3.1069-.9938-2.6644.7362z"/><path d="m36.4021 199.271c18.1044-1.73 36.2642-2.881 54.4424-3.442 18.1785-.561 36.2275-.543 54.3225.055 10.269.341 20.529.865 30.779 1.583 1.779.12 1.77-2.641 0-2.761-18.141-1.26-36.328-1.941-54.516-2.033-18.113-.092-36.227.395-54.3038 1.463-10.2598.607-20.5012 1.399-30.7241 2.374-1.7607.166-1.7699 2.926 0 2.761z"/><path d="m42.495 218.66c9.0062.322 17.7634 2.485 26.5575 4.261s17.8463 2.788 26.8893 3.322c9.0432.534 18.2332.893 27.3502 1.15 9.117.258 17.634.111 26.281-1.582 8.711-1.703 17.1-5.053 24.069-10.611 1.392-1.113-.581-3.055-1.955-1.951-13.043 10.408-30.539 11.789-46.588 11.43-8.96-.194-17.939-.598-26.8895-1.068-8.9508-.469-17.874-1.288-26.6865-3-9.6238-1.877-19.183-4.343-29.0188-4.702-1.7791-.065-1.7791 2.696 0 2.761z"/><path d="m231.624 111.258c-15.505.819-16.068 1.473-16.768 19.611-.701-18.129-1.263-18.792-16.768-19.611 15.505-.819 16.067-1.472 16.768-19.6103.7 18.1293 1.263 18.7913 16.768 19.6103z"/><path d="m37.0379 149.78c-7.7525.598-8.0382 1.076-8.3793 14.365-.3503-13.289-.6268-13.767-8.3793-14.365 7.7525-.599 8.0382-1.077 8.3793-14.365.3503 13.288.6268 13.766 8.3793 14.365z"/><path d="m176.878 128.485h-1.843c-1.328-29.3926-1.909-29.9724-31.351-31.2975v-1.8405c29.442-1.3252 30.023-1.905 31.351-31.2977h1.843c1.328 29.3927 1.908 29.9725 31.351 31.2977v1.8405c-29.443 1.3251-30.023 1.9049-31.351 31.2975zm-19.386-32.2178c13.284 1.5 16.962 5.1718 18.464 18.4328 1.503-13.261 5.181-16.9328 18.464-18.4328-13.283-1.5-16.961-5.1718-18.464-18.4326-1.502 13.2608-5.18 16.9326-18.464 18.4326z"/><path d="m12.2325 220.308c-.5255-11.577-.6361-11.688-12.2325-12.212v-1.841c11.5964-.515 11.707-.635 12.2325-12.211h1.8436c.5254 11.576.6361 11.687 12.2325 12.211v1.841c-11.5964.524-11.7071.635-12.2325 12.212zm-3.53057-13.132c2.48887.69 3.75177 1.951 4.44317 4.435.6913-2.484 1.9542-3.745 4.4431-4.435-2.4889-.691-3.7518-1.951-4.4431-4.436-.6914 2.485-1.9543 3.745-4.44317 4.436z"/><path d="m136.926 839.782c-.627-.092-2.083-.175-2.12-1.04s1.235-1.767 1.853-2.181c1.899-1.288 4.019-2.347 6.13-3.258 4.268-1.84 8.822-3 13.403-3.782 9.928-1.702 20.16-1.748 30.208-1.951 11.016-.221 22.031-.184 33.047-.064 10.923.11 21.856.165 32.78.589 5.494.211 10.988.552 16.454 1.122 4.729.497 9.698.911 14.205 2.513 2.71.966 8.545 4.104 5.743 7.721-1.355 1.748-3.835 2.19-5.89 2.493-2.655.396-5.338.654-8.02.884-5.383.469-10.785.718-16.187 1.03-5.402.313-10.619 1.05-15.938 1.528-5.319.479-10.712.405-16.058.755-5.43.359-10.85.828-16.298.819-21.865-.056-43.602-2.862-65.2-5.982-2.701-.386-5.402-.782-8.103-1.178-1.742-.257-2.489 2.402-.737 2.66 23.045 3.368 46.183 6.745 69.505 7.205 5.761.111 11.476-.11 17.219-.515 2.932-.212 5.872-.423 8.813-.534 2.94-.11 5.623-.083 8.434-.285 5.697-.396 11.339-1.261 17.035-1.638 5.697-.377 11.532-.598 17.294-1.095 2.802-.24 5.604-.534 8.397-.92 2.425-.332 4.895-.856 6.831-2.458 1.466-1.205 2.461-3.036 2.36-4.969-.111-2.107-1.318-3.828-2.904-5.144-3.604-2.982-8.259-4.022-12.785-4.693-5.697-.847-11.431-1.39-17.174-1.749-11.633-.718-23.303-.736-34.955-.874s-23.405-.23-35.112-.037c-10.702.175-21.552.239-32.153 1.85-4.978.754-9.909 1.942-14.564 3.874-2.25.93-4.434 2.006-6.508 3.285-1.743 1.077-3.789 2.66-3.872 4.905-.083 2.402 2.102 3.46 4.139 3.783 1.742.266 2.489-2.393.737-2.66z"/><path d="m146.044 844.116c-1.438 16.555-3.116 33.092-4.941 49.611-1.835 16.592-3.807 33.175-5.845 49.748-1.143 9.304-2.295 18.617-3.456 27.921-.222 1.757 2.544 1.739 2.765 0 2.056-16.491 4.102-32.982 6.066-49.491 1.963-16.583 3.844-33.166 5.531-49.776.949-9.332 1.834-18.663 2.645-28.004.157-1.766-2.609-1.757-2.765 0z"/><path d="m167.429 845.966c-3.097 16.5-6.379 32.963-9.854 49.39-3.494 16.5-7.181 32.954-11.053 49.362-2.175 9.202-4.406 18.386-6.701 27.552l1.705-.966c-2.222-.387-4.443-.773-6.665-1.16-1.742-.304-2.489 2.356-.737 2.66 2.221.386 4.443.773 6.665 1.159.719.129 1.502-.184 1.705-.966 4.074-16.289 7.964-32.623 11.652-48.994 3.687-16.371 7.227-32.945 10.554-49.473 1.862-9.267 3.669-18.543 5.411-27.837.323-1.739-2.341-2.485-2.664-.736z"/><path d="m279.734 843.49c1.42 16.436 3.079 32.844 4.877 49.234 1.797 16.398 3.742 32.779 5.743 49.15 1.124 9.249 2.277 18.497 3.42 27.736.212 1.74 2.986 1.758 2.765 0-2.028-16.371-4.056-32.742-5.992-49.122-1.936-16.381-3.779-32.771-5.438-49.179-.941-9.266-1.816-18.543-2.618-27.828-.148-1.758-2.923-1.776-2.766 0z"/><path d="m258.755 846.058c3.051 16.371 6.296 32.715 9.734 49.012 3.438 16.298 7.061 32.559 10.868 48.773 2.148 9.138 4.36 18.267 6.628 27.378.194.773.977 1.086 1.705.966 2.194-.387 4.379-.764 6.573-1.15 1.751-.304 1.005-2.963-.737-2.66-2.194.387-4.379.764-6.573 1.151l1.705.966c-4.019-16.169-7.863-32.375-11.504-48.626-3.65-16.252-7.107-32.549-10.37-48.884-1.844-9.202-3.623-18.423-5.347-27.653-.322-1.749-2.986-1.003-2.664.736z"/><path d="m458.327 762.739h58.157 58.157 32.642c1.779 0 1.779-2.761 0-2.761-19.386 0-38.772 0-58.158 0s-38.771 0-58.157 0c-10.877 0-21.764 0-32.641 0-1.78 0-1.78 2.761 0 2.761z"/><path d="m609.016 759.923c.756-11.549 3.669-22.813 7.135-33.819 3.466-11.007 7.411-22.105 10.868-33.24 3.512-11.319 6.757-22.721 9.734-34.196 1.494-5.77 2.923-11.559 4.287-17.365 1.244-5.329 3.613-11.402.544-16.5-4.729-7.868-14.454-10.767-23.018-11.761-4.766-.552-9.559-.58-14.343-.608-6.131-.046-12.261-.092-18.391-.128-6.13-.037-11.716-.203-17.56-.102-4.582.083-9.43.534-13.45 2.927-4.424 2.641-6.802 7.518-9.273 11.834-2.765 4.822-5.402 9.718-7.891 14.697-9.882 19.739-17.56 40.592-22.796 62.033-.655 2.697-1.281 5.412-1.862 8.126-.369 1.73 2.295 2.476 2.664.736 4.517-21.082 11.347-41.659 20.4-61.242 4.507-9.755 9.43-19.482 15.191-28.574 1.281-2.015 2.756-3.883 4.812-5.144 1.927-1.178 4.111-1.813 6.324-2.19 4.959-.838 10.158-.451 15.163-.414 11.302.083 22.631-.092 33.923.303 8.398.295 17.911 1.289 24.465 7.123 1.733 1.546 3.448 3.433 4.139 5.697.848 2.779-.175 5.806-.802 8.53-1.281 5.595-2.618 11.172-4.028 16.74-2.83 11.199-5.918 22.343-9.264 33.395-3.31 10.942-6.988 21.746-10.574 32.595-3.585 10.85-6.756 21.369-8.314 32.448-.378 2.688-.673 5.384-.848 8.099-.12 1.776 2.645 1.767 2.765 0z"/><path d="m606.997 759.619c-12.611-5.503-23.128-14.604-34.642-21.939-11.394-7.251-23.552-13.288-36.2-18.046-7.162-2.687-14.481-4.951-21.92-6.782-1.724-.423-2.462 2.236-.738 2.659 13.155 3.24 25.968 7.832 38.154 13.758 6.02 2.926 11.892 6.166 17.57 9.7 5.678 3.533 11.145 7.481 16.648 11.337 6.268 4.39 12.693 8.623 19.736 11.696 1.613.709 3.023-1.674 1.392-2.383z"/><path d="m513.543 712.07c-18.962-.184-37.924-.055-56.876.395-18.879.451-37.749 1.215-56.609 2.292-4.674.267-9.347.543-14.011.865-3.964.276-8.011.635-11.8 1.886-6.406 2.126-12.241 7.592-11.956 14.826.129 3.312 1.798 6.202 4.48 8.125 2.683 1.924 6.112 2.66 9.329 3.166 3.973.626 7.919 1.187 11.818 2.181 4.231 1.077 8.379 2.457 12.481 3.948 16.427 5.991 32.881 14.255 50.829 13.702 2.203-.064 4.397-.294 6.573-.635 1.751-.276 1.004-2.935-.738-2.659-17.219 2.687-33.904-4.565-49.575-10.666-7.743-3.009-15.588-5.889-23.764-7.463-3.411-.653-6.905-.911-10.279-1.73-2.959-.718-6.01-1.997-7.54-4.804-1.42-2.613-.94-5.843.387-8.392 1.558-3.01 4.139-5.117 7.255-6.405 3.576-1.491 7.503-1.951 11.338-2.237 4.369-.331 8.739-.57 13.117-.828 18.086-1.058 36.2-1.831 54.314-2.3 18.113-.479 36.236-.663 54.359-.553 2.295.01 4.591.028 6.877.056 1.779.018 1.779-2.743 0-2.761z"/><path d="m453.136 788.919c-.221 16.473.019 32.955.728 49.418.203 4.721.443 9.451.719 14.172.102 1.767 2.867 1.776 2.766 0-.968-16.454-1.475-32.927-1.521-49.399-.009-4.73.018-9.46.074-14.191.027-1.776-2.738-1.776-2.766 0z"/><path d="m455.542 854.368c1.116.257 2.213.57 3.301.92.534.175 1.06.359 1.585.552.277.101.544.202.811.313.12.046.231.092.351.138.046.018.516.221.248.101.664.285 1.512.221 1.89-.497.314-.589.212-1.583-.498-1.886-2.258-.957-4.563-1.74-6.95-2.301-.701-.166-1.53.221-1.705.966-.157.709.212 1.519.967 1.703z"/><path d="m463.349 856.825c6.389-1.298 12.786-2.604 19.174-3.902 1.742-.359 1.005-3.018-.737-2.66-6.388 1.298-12.786 2.605-19.174 3.902-1.742.359-1.005 3.019.737 2.66z"/><path d="m483.99 851.579c-.148-16.233-.295-32.475-.433-48.709-.046-4.647-.083-9.303-.129-13.951-.019-1.776-2.784-1.776-2.766 0 .148 16.234.295 32.476.433 48.709.047 4.647.083 9.304.129 13.951.019 1.776 2.784 1.776 2.766 0z"/><path d="m454.823 788.22c-17.496-6.276-34.826-12.994-51.981-20.153-.692-.286-1.512.313-1.706.966-.23.791.277 1.408.968 1.702 17.155 7.16 34.485 13.878 51.981 20.154 1.678.598 2.397-2.062.738-2.66z"/><path d="m410.64 822.104c-.793-16.353-1.125-32.724-.996-49.095.019-1.777-2.747-1.777-2.765 0-.129 16.371.202 32.742.995 49.095.083 1.767 2.849 1.776 2.766 0z"/><path d="m407.202 822.278-24.825-.395c-1.779-.028-1.779 2.733 0 2.761l24.825.395c1.779.028 1.779-2.733 0-2.761z"/><path d="m380.994 745.429v77.623c0 1.776 2.766 1.776 2.766 0v-77.623c0-1.776-2.766-1.776-2.766 0z"/><path d="m483.087 790.355c27.332-1.021 54.7-.902 82.014.387 7.632.359 15.256.81 22.879 1.353 1.779.128 1.77-2.632 0-2.761-27.276-1.933-54.636-2.715-81.986-2.328-7.642.11-15.275.303-22.907.589-1.77.064-1.779 2.825 0 2.76z"/><path d="m579.102 613.548c.369-5.512 5.66-9.221 10.666-10.261 6.877-1.436 14.233.626 20.99 1.831 7.19 1.279 14.389 2.568 21.579 3.847 3.402.607 6.831 1.132 10.205 1.859 2.903.626 5.89 1.537 8.093 3.626 3.9 3.69 4.563 9.57 4.305 14.65-.332 6.589-2.046 13.068-4.047 19.325-2 6.258-4.369 12.414-6.351 18.69-1.982 6.277-3.604 13.178-4.803 19.896-2.424 13.537-3.549 27.249-5.438 40.85-.941 6.782-2.065 13.555-3.641 20.218-.784 3.34-1.724 6.644-2.711 9.929-.986 3.286-1.908 6.635-1.843 10.077.064 3.442 1.115 6.902 2.12 10.233 1.005 3.332 2.046 6.589 3.153 9.856 2.166 6.405 4.526 12.736 7.088 18.985 2.609 6.359 5.411 12.644 8.416 18.828.756 1.555 1.521 3.101 2.296 4.638.534 1.049 1.926 2.963 1.041 4.141-.608.819-2 1.003-2.94 1.095-1.595.157-3.226.083-4.83.102-3.651.046-7.301.092-10.942.138-1.826.027-3.651.046-5.476.073-1.235.019-3.641.571-4.277-.791s-.839-3.037-1.226-4.482c-.507-1.896-1.033-3.791-1.558-5.687-.977-3.497-1.973-6.975-3.014-10.454-1.042-3.478-2.102-6.948-3.19-10.399-.894-2.825-1.714-5.714-3.005-8.402-1.097-2.291-2.664-4.481-4.895-5.797-2.553-1.5-5.521-1.537-8.388-1.187-2.867.349-5.743 1.04-8.582.432-1.733-.377-2.48 2.282-.738 2.66 3.134.681 6.195.055 9.32-.332 2.894-.358 5.936-.386 8.204 1.721 1.972 1.832 3.033 4.445 3.89 6.948 1.171 3.414 2.212 6.874 3.263 10.316 2.212 7.224 4.296 14.494 6.241 21.792.396 1.481.627 3.202 1.41 4.546.784 1.343 2.065 1.822 3.521 1.905 3.706.211 7.504-.083 11.21-.129 3.705-.046 7.605-.092 11.403-.147 2.396-.037 5.42-.267 6.904-2.448 1.945-2.862-.682-6.359-1.954-8.927-1.604-3.221-3.144-6.46-4.637-9.736-5.918-12.975-10.951-26.347-15.072-39.985-1.06-3.506-2.194-7.076-2-10.785s1.456-7.086 2.47-10.537c2.01-6.847 3.448-13.85 4.591-20.89 2.268-13.997 3.365-28.141 5.531-42.147 1.097-7.049 2.461-14.061 4.388-20.926 1.853-6.626 4.295-13.059 6.508-19.565 2.212-6.506 4.185-13.251 5.015-20.153.672-5.586.617-11.733-2.231-16.767-3.227-5.706-9.329-7.243-15.349-8.31-7.346-1.307-14.693-2.623-22.031-3.929-3.752-.672-7.494-1.335-11.246-2.007-3.549-.635-7.126-1.306-10.739-1.454-6.112-.248-12.555 1.344-16.584 6.258-1.696 2.08-2.71 4.491-2.894 7.169-.12 1.776 2.646 1.767 2.765 0z"/><path d="m469.756 640.612c4.314-24.082 19.091-44.494 35.361-62.116 2.323-2.522 4.673-5.034 7.116-7.454 2.443-2.421 4.969-4.537 8.361-5.071 1.752-.276 1.005-2.936-.737-2.659-6.103.957-10.481 6.616-14.464 10.84-4.36 4.629-8.591 9.377-12.582 14.328-7.799 9.681-14.786 20.126-19.69 31.583-2.729 6.368-4.803 12.994-6.029 19.813-.313 1.74 2.351 2.485 2.664.736z"/><path d="m550.784 554.496c-7.946-4.05-16.952-5.899-25.857-5.283-4.296.295-8.72 1.059-12.749 2.614-1.825.699-3.567 1.739-4.323 3.635-.691 1.73-.313 3.699.618 5.273 2.267 3.791 6.969 4.27 10.877 5.181 4.489 1.049 8.914 2.466 13.154 4.261 4.241 1.794 8.315 3.957 12.187 6.432 3.871 2.476 7.743 5.549 11.569 8.384 8.241 6.11 17.855 11.659 28.521 9.975 1.281-.202 1.207-1.923.331-2.521-11.467-7.813-21.625-17.596-29.811-28.795-2.351-3.212-4.535-6.543-6.563-9.957-.904-1.528-3.3-.138-2.388 1.389 7.292 12.295 16.685 23.347 27.701 32.476 3.106 2.577 6.332 4.997 9.669 7.27l.332-2.521c-8.609 1.362-16.832-2.945-23.653-7.721-3.577-2.503-6.979-5.255-10.528-7.795s-7.042-4.684-10.812-6.607c-3.771-1.924-7.467-3.46-11.357-4.776s-8.011-2.099-12.039-3.148c-1.779-.469-3.669-1.168-4.711-2.788-.903-1.399-.995-3.129.443-4.187s3.604-1.528 5.374-1.988c1.908-.497 3.862-.874 5.817-1.104 9.163-1.095 18.584.497 26.815 4.684 1.586.81 2.987-1.574 1.392-2.383z"/><path d="m499.052 507.388c-7.992 15.69-13.707 32.209-17.948 49.27-2.184 8.807-4.194 17.65-6.268 26.485-2.074 8.834-4.24 17.742-6.232 26.65-2.203 9.847-3.954 19.923-3.235 30.046.129 1.758 2.894 1.776 2.765 0-.627-8.908.673-17.761 2.517-26.457s4.019-17.448 6.065-26.153c4.047-17.264 7.578-34.786 13.33-51.58 3.152-9.212 6.969-18.175 11.393-26.853.802-1.583-1.576-2.982-2.387-1.39z"/><path d="m462.788 430.584c7.494 19.896 6.711 41.816 7.052 62.733.368 22.639.608 45.277.71 67.915.055 12.699.064 25.389.036 38.089 0 1.776 2.766 1.776 2.766 0 .055-22.795-.028-45.58-.258-68.375-.111-11.319-.258-22.638-.433-33.957-.176-10.849-.194-21.727-.812-32.558-.663-11.733-2.24-23.531-6.397-34.574-.618-1.647-3.291-.929-2.664.736z"/><path d="m519.93 344.044c-6.573 13.242-12.611 26.807-17.174 40.877-4.701 14.485-7.402 29.43-9.43 44.494-2.102 15.608-3.909 31.252-5.826 46.878-1.936 15.745-3.872 31.5-5.817 47.245-1.935 15.746-3.871 31.5-5.816 47.246-.24 1.978-.489 3.957-.728 5.935-.212 1.758 2.553 1.74 2.765 0 1.927-15.671 3.853-31.343 5.789-47.015 1.917-15.598 3.835-31.196 5.761-46.785 1.918-15.58 3.789-31.169 5.762-46.74 1.908-15.083 4.185-30.156 8.443-44.779 4.259-14.623 9.827-27.709 16.206-40.942.811-1.675 1.632-3.35 2.452-5.015.82-1.666-1.595-2.991-2.387-1.39z"/><path d="m467.811 640.842c-.434-18.34-6.72-36.524-17.957-51.064-2.987-3.865-6.527-7.463-11.32-8.917-1.706-.516-2.434 2.144-.738 2.659 3.946 1.196 6.914 4.206 9.431 7.344 2.682 3.368 5.051 7.021 7.144 10.785 4.258 7.647 7.3 15.939 9.043 24.515.986 4.841 1.521 9.746 1.631 14.678.046 1.776 2.812 1.776 2.766 0z"/><path d="m498 506.919c-4.83 2.319-11.08 1.564-15.108-2.025-4.029-3.589-5.522-9.046-4.167-14.071l-1.705.967c3.964.994 7.254 3.598 10.545 5.889 3.697 2.577 7.384 5.154 11.081 7.73 3.392 2.365 6.83 4.712 9.817 7.583 2.839 2.724 5.088 5.917 7.043 9.313 3.761 6.525 6.498 13.638 10.96 19.758 2.092 2.862 4.48 5.475 7.338 7.583 2.857 2.107 6.664 4.049 10.333 3.966 6.711-.147 9.827-7.114 11.477-12.626 1.272-4.251 2.433-8.53 3.641-12.8 1.207-4.27 2.618-8.55 3.595-12.884.848-3.755.968-7.794-1.346-11.08-1.973-2.806-4.959-4.629-8.001-6.092-7.531-3.607-15.524-6.414-23.599-8.558s-16.454-3.58-24.833-4.279c-7.587-.626-15.607-.672-22.806 2.107-1.77.681-3.457 1.509-5.061 2.522-1.502.938-.12 3.331 1.392 2.383 6.268-3.929 13.744-4.758 21.008-4.564 7.919.211 15.846 1.352 23.58 3.046 7.734 1.693 15.625 4.132 23.101 7.178 5.909 2.411 14.601 5.374 14.389 13.104-.11 4.049-1.742 8.135-2.839 11.991-1.189 4.169-2.369 8.337-3.558 12.506-.922 3.23-1.696 6.58-3.199 9.598-1.18 2.374-2.894 4.795-5.604 5.494-3.365.865-7.181-1.224-9.845-3.101-2.664-1.878-5.043-4.482-6.988-7.187-4.194-5.844-6.858-12.553-10.37-18.792-1.788-3.184-3.826-6.248-6.296-8.945-2.618-2.852-5.715-5.208-8.859-7.444-3.41-2.43-6.858-4.795-10.287-7.188-3.429-2.392-6.536-4.822-10.048-6.809-1.585-.893-3.272-1.629-5.042-2.071-.719-.184-1.503.23-1.706.966-1.622 6.019.332 12.902 5.135 16.97 5.024 4.27 12.288 5.07 18.206 2.236 1.604-.773.203-3.147-1.392-2.384z"/><path d="m527.029 492.618c8.619 10.574 12.647 24.479 11.237 38.006-.184 1.767 2.581 1.749 2.765 0 1.494-14.291-2.977-28.84-12.048-39.957-1.124-1.38-3.069.589-1.954 1.951z"/><path d="m497.844 430.805c9.891 1.537 20.289-.856 28.319-6.902 6.959-5.245 11.734-12.672 14.537-20.853 2.802-8.181 3.742-17.31 3.29-26.07-.553-10.887-3.161-21.562-5.66-32.136-1.309-5.549-2.627-11.098-3.659-16.711-.516-2.779-.959-5.577-1.291-8.393-.267-2.31-.396-4.693-1.087-6.939-.655-2.098-1.816-4.039-3.725-5.217-1.908-1.178-4.157-1.362-6.286-.985-5.135.902-8.49 5.393-11.514 9.221-6.766 8.577-12.988 17.577-18.574 26.954-5.587 9.377-10.813 19.104-14.685 29.291-3.669 9.654-5.872 20.218-3.973 30.507 1.558 8.438 5.835 16.61 12.749 21.865 1.687 1.288 3.512 2.356 5.457 3.202 1.613.709 3.024-1.675 1.392-2.383-7.559-3.304-12.823-10.105-15.45-17.779-3.069-8.964-2.406-18.525.129-27.544 2.793-9.947 7.55-19.306 12.519-28.334 4.968-9.037 10.508-17.761 16.565-26.117 2.968-4.085 5.955-8.291 9.384-12 2.655-2.88 7.844-6.395 11.55-3.027 1.503 1.362 2.01 3.442 2.332 5.365.387 2.337.553 4.721.885 7.077.756 5.355 1.853 10.656 3.051 15.929 4.231 18.589 9.864 37.601 5.799 56.743-1.678 7.904-4.932 15.635-10.445 21.653-6.176 6.745-14.868 10.84-24.022 11.264-2.277.101-4.572 0-6.831-.35-1.742-.267-2.489 2.393-.737 2.66z"/><path d="m473.462 479.007c6.812-2.76 11.071-8.981 13.919-15.497 3.134-7.159 5.236-15.064 4.831-22.932-.194-3.81-1.014-7.537-2.554-11.034-1.622-3.672-4.157-6.874-6.978-9.699-3.024-3.028-6.36-5.733-9.614-8.513-3.54-3.018-7.089-6.046-10.629-9.064-3.826-3.267-7.587-6.635-11.541-9.755-3.503-2.77-7.264-5.217-11.615-6.414-.848-.23-1.77.433-1.751 1.335.285 13.886 2.083 27.671 4.129 41.392 1.835 12.295 2.941 25.298 10.85 35.457 3.789 4.869 8.702 8.826 14.297 11.448 1.604.755 3.006-1.628 1.392-2.383-10.103-4.739-17.21-13.629-20.16-24.304-1.705-6.175-2.461-12.607-3.41-18.929-1.005-6.681-1.973-13.372-2.729-20.089-.848-7.5-1.447-15.037-1.604-22.592l-1.751 1.334c7.522 2.061 13.384 8.153 19.146 13.077 6.572 5.604 13.246 11.116 19.717 16.849 2.849 2.522 5.623 5.2 7.734 8.375 2.111 3.174 3.337 6.515 3.946 10.141 1.226 7.251-.305 14.807-2.793 21.626-2.489 6.819-6.407 14.595-13.56 17.494-1.632.662-.913 3.331.737 2.659z"/><path d="m455.302 593.523c.875-5.392-2.028-10.159-5.236-14.245-3.079-3.93-6.941-7.27-11.965-8.273-2.72-.543-5.531-.608-8.287-.7-2.757-.092-5.651-.147-8.463-.027-2.498.101-5.024.432-7.273 1.583-2.046 1.049-3.641 2.806-4.784 4.776-1.318 2.273-2.093 4.831-2.738 7.371-.811 3.193-1.364 6.442-1.714 9.718-.093.874.958 1.592 1.751 1.334 5.494-1.84 9.384-6.249 14.426-8.89 2.803-1.463 5.789-1.849 8.887-1.159 3.484.782 6.674 2.42 10.066 3.469 3.724 1.151 7.614 1.528 11.255-.073 1.623-.718.222-3.092-1.392-2.384-3.161 1.39-6.766.598-9.891-.451-3.309-1.104-6.462-2.687-9.909-3.349-3.134-.599-6.176-.323-9.108.947-2.516 1.086-4.71 2.734-6.895 4.353-2.535 1.887-5.125 3.856-8.167 4.877l1.751 1.335c.498-4.629 1.328-9.534 3.153-13.85.737-1.748 1.761-3.469 3.245-4.693 1.687-1.381 3.881-1.896 6.019-2.071 4.867-.395 9.947-.211 14.804.212 2.36.202 4.683.69 6.767 1.859 1.862 1.049 3.447 2.485 4.876 4.067 3.162 3.497 6.987 8.522 6.176 13.537-.276 1.739 2.388 2.485 2.664.736z"/><path d="m702.939 439.041c-4.665 24.203-8.389 48.58-11.707 73.004-3.319 24.414-6.287 48.865-9.338 73.316-1.733 13.868-3.457 27.736-5.19 41.595-.221 1.758 2.544 1.739 2.765 0 3.061-24.534 6.112-49.068 9.182-73.592 3.042-24.341 6.167-48.672 9.928-72.912 2.111-13.601 4.424-27.165 7.024-40.675.332-1.739-2.332-2.475-2.664-.736z"/><path d="m695.277 490.069c-8.471 0-17.256-.028-25.294-3.064-8.039-3.037-14.132-9.893-17.791-17.734-3.66-7.84-4.711-17.254-.378-25.049 1.954-3.524 4.858-6.34 8.526-8.043 4.213-1.951 9.016-2.429 13.579-2.816 5.153-.432 10.416-.846 15.588-.681 4.185.129 8.572.911 11.568 4.086 1.226 1.298 3.171-.662 1.955-1.951-6.186-6.561-16.962-4.988-25.037-4.5-9.55.571-20.178 1.353-26.539 9.47-5.817 7.435-6.416 17.374-3.549 26.116 2.867 8.743 8.711 17.255 16.952 21.764 9.228 5.052 20.16 5.163 30.411 5.153 1.779 0 1.779-2.76 0-2.76z"/><path d="m696.541 494.495c6.397 2.237 13.237 3.617 20.022 3.727 6.194.102 12.297-1.334 16.878-5.714 2.194-2.108 3.955-4.638 5.596-7.178 1.742-2.715 3.337-5.531 4.765-8.421 2.858-5.76 5.126-11.834 6.711-18.064 1.788-7.022 2.729-14.255 2.812-21.497.018-1.776-2.747-1.776-2.766 0-.138 12.248-2.83 24.469-7.927 35.623-2.443 5.346-5.347 10.803-9.099 15.359-1.779 2.162-3.844 4.04-6.397 5.254-2.554 1.215-5.678 1.758-8.619 1.859-7.181.249-14.491-1.261-21.239-3.616-1.687-.589-2.406 2.079-.737 2.659z"/><path d="m665.116 432.195c12.352-5.789 25.165-10.602 38.283-14.366 6.406-1.84 12.896-3.432 19.422-4.776 6.656-1.362 13.477-2.751 20.271-3.184 5.872-.377 12.509.58 16.251 5.641 3.743 5.062.996 11.191-2.046 15.902-5.909 9.129-15.118 16.178-18.685 26.752-.314.929-.498 3.405-1.761 3.377-1.539-.027-3.217-1.785-4.36-2.641-3.3-2.475-6.591-4.951-9.891-7.426-6.591-4.951-13.191-9.911-19.782-14.862-1.42-1.068-2.803 1.325-1.392 2.383 6.231 4.675 12.454 9.359 18.685 14.034 3.051 2.291 6.102 4.583 9.163 6.883 1.493 1.123 2.959 2.393 4.563 3.368 1.235.746 2.738 1.298 4.176.884s2.249-1.767 2.645-3.166c.397-1.398.775-2.668 1.318-3.957 1.125-2.623 2.665-5.061 4.333-7.362 3.448-4.739 7.559-8.954 11.089-13.638 3.531-4.684 7.504-10.859 6.389-17.126-1.024-5.779-6.462-9.865-11.901-11.181-6.987-1.693-14.5-.083-21.441 1.095-6.942 1.178-14.077 2.706-21.018 4.491-13.993 3.608-27.673 8.411-40.882 14.282-1.623.718-3.236 1.464-4.84 2.209s-.203 3.138 1.392 2.384z"/><path d="m710.441 417.351c9.182 1.978 17.082 8.162 21.211 16.583.784 1.592 3.171.193 2.388-1.39-4.416-9.009-13.044-15.736-22.861-17.853-1.733-.377-2.48 2.283-.738 2.66z"/><path d="m709.455 416.863c-.636 4.776-.193 9.672 1.254 14.264.534 1.684 3.208.966 2.664-.736-1.392-4.39-1.77-8.973-1.162-13.537.102-.736-.709-1.38-1.382-1.38-.83 0-1.282.635-1.383 1.38z"/><path d="m717.808 418.345c5.494-.967 11.227.175 15.993 3.046 1.53.92 2.922-1.463 1.392-2.384-5.43-3.276-11.891-4.417-18.123-3.322-.737.129-1.152 1.031-.968 1.703.212.773.959 1.095 1.706.966z"/><path d="m697.814 353.311c.488 17.917-4.987 35.172-9.2 52.39-4.286 17.54-7.651 35.31-10.38 53.153-2.728 17.779-4.839 35.641-6.664 53.522-1.835 18.037-3.402 36.101-4.923 54.166-.774 9.202-1.447 18.414-1.438 27.653s.738 18.12 2.148 27.074c.35 2.199.737 4.399 1.171 6.58.341 1.739 3.005 1.003 2.664-.737-1.733-8.852-2.784-17.816-3.107-26.834-.332-9.203.129-18.405.83-27.58 1.373-18.055 3.033-36.092 4.802-54.11 1.761-17.945 3.78-35.881 6.389-53.725 2.608-17.843 5.798-35.512 9.881-53.024 4.01-17.181 9.689-34.252 10.528-51.994.101-2.181.119-4.372.064-6.552-.046-1.777-2.811-1.777-2.765 0z"/><path d="m648.644 476.348c5.208 7.785 9.439 16.206 12.499 25.049 3.061 8.844 5.006 18.773 5.872 28.473.922 10.306 1.107 20.668 1.494 31.003.387 10.334.783 21 1.17 31.5.443 11.88.885 23.752 1.328 35.632.064 1.767 2.83 1.776 2.765 0-.793-21.304-1.585-42.608-2.369-63.911-.756-20.319-.47-41.145-6.692-60.737-3.19-10.049-7.808-19.647-13.68-28.408-.986-1.472-3.383-.092-2.387 1.39z"/><path d="m668.425 536.679c-3.392-.579-5.356-4.058-7.457-6.441-2.498-2.844-5.716-4.684-9.504-3.111-2.268.948-4.195 2.669-6.776 2.595-2.581-.073-5.005-1.702-6.904-3.349-4.185-3.654-7.642-8.375-10.859-12.865-6.702-9.359-12.343-19.519-16.961-30.056-1.199-2.733-2.323-5.503-3.374-8.291-.47-1.252-.931-2.512-1.374-3.782-.368-1.049-1.18-2.752-.525-3.829.534-.883 1.862-1.021 2.784-1.095 1.309-.101 2.627-.092 3.936 0 2.387.166 4.729.635 7.042 1.252 10.767 2.843 21.027 8.834 32.522 7.261.747-.102 1.134-1.049.968-1.703-.212-.8-.968-1.067-1.705-.966-10.491 1.435-20.382-4.279-30.171-7.022-2.489-.699-5.015-1.224-7.587-1.49-2.433-.249-5.291-.461-7.632.395-2.591.939-3.494 3.295-2.932 5.871.627 2.918 1.982 5.826 3.079 8.596 4.443 11.236 10.011 22.049 16.703 32.116 3.3 4.97 6.895 9.755 10.859 14.218 3.365 3.801 8.038 8.135 13.551 7.408 1.456-.193 2.765-.782 4.047-1.482 1.216-.662 2.461-1.527 3.881-1.647 1.806-.147 3.226 1.049 4.397 2.273 2.737 2.881 4.977 7.068 9.264 7.795 1.742.294 2.489-2.365.737-2.66z"/><path d="m673.255 536.661c4.517.239 9.025-.58 13.311-1.969 4.287-1.39 8.444-3.019 12.039-5.522 6.646-4.619 10.02-12.589 9.716-20.567-.193-4.942-1.659-9.718-3.899-14.108-.811-1.582-3.199-.184-2.388 1.39 3.476 6.81 4.812 14.834 1.991 22.114-1.281 3.312-3.466 6.312-6.323 8.438-3.153 2.356-6.96 3.893-10.647 5.181-4.443 1.555-9.062 2.531-13.791 2.273-1.779-.092-1.769 2.669 0 2.761z"/><path d="m644.246 444.563c-6.074-2.255-12.057-5.384-16.648-10.031-4.959-5.015-7.365-11.512-6.738-18.552.691-7.712 4.369-14.89 8.075-21.543 3.844-6.911 7.965-13.648 11.855-20.531s7.476-13.822 10.324-21.147 4.351-14.402 7.098-21.414c1.327-3.378 2.95-6.902 5.254-9.737 1.134-1.389 2.498-2.043 4.268-1.481 1.613.515 2.95 1.665 4.102 2.862 2.213 2.291 4.462 4.978 7.799 5.475 2.894.433 5.512-.893 7.476-2.954 2.092-2.19 3.54-4.932 4.849-7.638 1.548-3.202 3.309-6.294 5.309-9.248 4.01-5.908 8.942-11.2 14.537-15.654 1.374-1.095 2.803-2.135 4.268-3.119l-2.028-1.556c-1.456 4.822-2.922 9.645-4.378 14.467-1.457 4.822-3.07 9.285-4.195 14.006-.921 3.865-.414 7.988 3.642 9.718 3.843 1.638 8.453 1.159 12.315-.148 4.747-1.61 8.96-4.408 13.016-7.27l-2.028-.828c3.134 22.261 6.305 45.166 2.701 67.565-1.014 6.303-2.581 12.515-4.775 18.515-.609 1.675 2.065 2.393 2.664.736 7.946-21.782 7.209-45.405 4.618-68.098-.746-6.497-1.641-12.966-2.553-19.445-.12-.846-1.365-1.297-2.028-.828-6.057 4.27-13.708 9.617-21.552 7.702-1.632-.395-3.125-1.187-3.568-2.917-.424-1.638.037-3.423.48-5.006 1.207-4.27 2.562-8.494 3.853-12.736 1.484-4.896 2.968-9.792 4.443-14.687.332-1.105-1.023-2.246-2.028-1.556-6.121 4.151-11.615 9.175-16.233 14.955-2.268 2.834-4.333 5.815-6.158 8.944-1.724 2.954-3.033 6.129-4.803 9.046-1.345 2.227-3.3 4.997-6.111 5.356-3.392.424-5.715-2.871-7.808-4.988-2.332-2.355-5.89-4.61-9.292-3.239-1.714.69-2.848 2.135-3.871 3.608-1.024 1.472-2.001 3.174-2.83 4.858-3.393 6.856-5.089 14.356-7.504 21.571-2.599 7.73-6.204 15.065-10.131 22.196-3.927 7.132-8.158 14.016-12.149 21.074-3.992 7.058-7.836 14.108-9.246 21.985-1.3 7.279-.028 14.641 4.489 20.595 4.056 5.338 9.808 9.147 15.865 11.88 1.521.691 3.069 1.316 4.627 1.896 1.669.617 2.388-2.052.738-2.659z"/><path d="m497.733 642.904c-15.606.294-31.213.027-46.801-.828-4.47-.249-8.941-.543-13.403-.875l.701 2.577c3.152-1.555 6.729-2.19 10.204-2.558 3.936-.414 7.909-.552 11.864-.635 8.287-.175 16.574.138 24.825.938 2.23.221 4.461.47 6.673.764 1.641.221 3.918.35 5.172 1.555 1.253 1.206 3.235-.717 1.954-1.95-1.208-1.169-2.858-1.666-4.48-1.97-1.973-.377-3.982-.57-5.983-.8-4.397-.497-8.812-.856-13.237-1.077-8.628-.433-17.376-.469-25.986.34-4.259.405-8.545 1.105-12.417 3.019-1.327.653-.553 2.475.701 2.576 15.542 1.178 31.13 1.786 46.727 1.823 4.498 0 8.987-.028 13.477-.12 1.779-.037 1.779-2.798 0-2.761z"/><path d="m436.193 642.49c2.894 19.205 8.13 38.015 15.311 56.061 2.083 5.237 4.333 10.408 6.711 15.516.746 1.61 3.134.211 2.387-1.39-8.222-17.623-14.666-36.083-18.823-55.077-1.152-5.245-2.12-10.527-2.922-15.837-.268-1.749-2.932-1.003-2.664.736z"/><path d="m497.153 643.198c-5.088 18.138-10.564 36.166-16.436 54.065-1.687 5.144-3.411 10.279-5.153 15.395-.571 1.685 2.093 2.412 2.664.737 6.112-17.89 11.846-35.908 17.174-54.037 1.511-5.135 2.986-10.27 4.424-15.424.48-1.711-2.184-2.448-2.664-.736z"/><path d="m657.741 628.29c13.458-2.383 27.175-2.374 40.799-2.31 1.484 0 2.987-.037 4.453.166 1.65.221 3.171.856 4.655 1.592.322.166.783.515 1.134.58l.276.147c-.138-.469-.415-.644-.82-.506-.692-.092-1.512.064-2.213.073-1.779.037-3.558.01-5.337.01-3.254 0-6.425.285-9.67.543-3.245.257-6.757.276-10.14.248-7.623-.046-15.256.037-22.87-.58-1.77-.138-1.761 2.623 0 2.761 7.458.598 14.943.525 22.428.571 3.669.027 7.356.036 11.015-.286 3.66-.322 7.301-.515 11.007-.506 1.844 0 3.696.019 5.549-.083 1.475-.082 3.134-.451 3.568-2.089.47-1.812-1.217-2.622-2.535-3.285-1.549-.773-3.162-1.491-4.877-1.804-3.503-.635-7.236-.34-10.785-.34-3.742 0-7.494.018-11.237.12-8.416.22-16.832.837-25.129 2.309-1.751.313-1.004 2.973.738 2.66z"/><path d="m709.233 628.391c-.986 28.151-5.614 55.988-10.407 83.697-1.106 6.396-2.12 12.828-3.77 19.104-.802 3.074-1.761 6.12-2.969 9.065-.571 1.399-1.207 2.788-1.917 4.123-.71 1.334-1.447 2.42-3.033 2.512-1.585.092-3.208-.111-4.784-.184-1.816-.083-3.641-.157-5.457-.239-3.568-.157-7.126-.313-10.693-.47-1.715-.073-3.439-.092-5.144-.23-1.493-.119-2.212-1.021-2.913-2.273-1.53-2.751-2.867-5.641-4.157-8.503-6.001-13.279-10.103-27.396-12.279-41.798-.267-1.748-2.931-1.003-2.664.737 2.028 13.408 5.743 26.512 11.043 39 1.365 3.221 2.83 6.395 4.407 9.515 1.226 2.429 2.47 5.42 5.466 5.972 1.512.277 3.116.212 4.655.277 1.973.082 3.946.174 5.918.257 3.641.157 7.283.322 10.924.479 1.761.073 3.54.23 5.31.221 1.493 0 2.848-.368 3.973-1.372 1.124-1.003 1.742-2.291 2.359-3.561.784-1.592 1.485-3.23 2.13-4.886 2.396-6.231 3.761-12.783 4.941-19.335 2.572-14.31 5.014-28.666 7.098-43.049 2.36-16.261 4.175-32.623 4.747-49.049.065-1.776-2.701-1.776-2.765 0z"/></g></svg>